<svg width="14" height="14" viewBox="0 0 14 14" fill="none" xmlns="http://www.w3.org/2000/svg">
<path d="M13.4725 0.499803C13.2693 0.296709 12.9938 0.182617 12.7065 0.182617C12.4193 0.182617 12.1438 0.296709 11.9406 0.499803L6.97246 5.46797L2.00429 0.499803C1.80114 0.296709 1.52564 0.182617 1.23838 0.182617C0.951114 0.182617 0.675614 0.296709 0.472459 0.499803C0.269365 0.702958 0.155273 0.978458 0.155273 1.26572C0.155273 1.55298 0.269365 1.82848 0.472459 2.03164L5.44063 6.9998L0.472459 11.968C0.269365 12.1711 0.155273 12.4466 0.155273 12.7339C0.155273 13.0211 0.269365 13.2966 0.472459 13.4998C0.675614 13.7029 0.951114 13.817 1.23838 13.817C1.52564 13.817 1.80114 13.7029 2.00429 13.4998L6.97246 8.53164L11.9406 13.4998C12.1438 13.7029 12.4193 13.817 12.7065 13.817C12.9938 13.817 13.2693 13.7029 13.4725 13.4998C13.6756 13.2966 13.7896 13.0211 13.7896 12.7339C13.7896 12.4466 13.6756 12.1711 13.4725 11.968L8.50429 6.9998L13.4725 2.03164C13.6756 1.82848 13.7896 1.55298 13.7896 1.26572C13.7896 0.978458 13.6756 0.702958 13.4725 0.499803Z" fill="#636363"/>
</svg>
