<?xml version="1.0" encoding="utf-8"?>
<!-- Generator: Adobe Illustrator 22.0.0, SVG Export Plug-In . SVG Version: 6.00 Build 0)  -->
<svg version="1.1" id="Capa_1" xmlns="http://www.w3.org/2000/svg" xmlns:xlink="http://www.w3.org/1999/xlink" x="0px" y="0px"
	 viewBox="0 0 330 128.5" style="enable-background:new 0 0 330 128.5;" xml:space="preserve">
<style type="text/css">
	.st0{fill:url(#SVGID_1_);}
	.st1{fill:#C1292B;}
	.st2{fill:#FFFFFF;}
	.st3{fill:#070308;}
	.st4{fill:#9C9D9F;}
	.st5{fill:none;stroke:#070308;stroke-width:0.25;stroke-miterlimit:10;}
</style>
<g>
	<linearGradient id="SVGID_1_" gradientUnits="userSpaceOnUse" x1="34.3762" y1="84.3172" x2="205.5665" y2="84.3172">
		<stop  offset="0" style="stop-color:#C23233"/>
		<stop  offset="1.234103e-02" style="stop-color:#C64C35"/>
		<stop  offset="3.811480e-02" style="stop-color:#CD6835"/>
		<stop  offset="6.525324e-02" style="stop-color:#D27934"/>
		<stop  offset="9.400234e-02" style="stop-color:#D58533"/>
		<stop  offset="0.1254" style="stop-color:#D78B32"/>
		<stop  offset="0.1647" style="stop-color:#D88D31"/>
		<stop  offset="0.2256" style="stop-color:#DFA22E"/>
		<stop  offset="0.3054" style="stop-color:#E9BC28"/>
		<stop  offset="0.3305" style="stop-color:#E8BD28"/>
		<stop  offset="0.3586" style="stop-color:#E2BE28"/>
		<stop  offset="0.3882" style="stop-color:#D6BE29"/>
		<stop  offset="0.4188" style="stop-color:#C4BD2C"/>
		<stop  offset="0.4499" style="stop-color:#ABB830"/>
		<stop  offset="0.476" style="stop-color:#90B235"/>
		<stop  offset="0.504" style="stop-color:#7EAC65"/>
		<stop  offset="0.5476" style="stop-color:#63A290"/>
		<stop  offset="0.5839" style="stop-color:#479BAE"/>
		<stop  offset="0.6109" style="stop-color:#2D96C0"/>
		<stop  offset="0.6257" style="stop-color:#1E94C5"/>
		<stop  offset="0.7293" style="stop-color:#1977AF"/>
		<stop  offset="0.8054" style="stop-color:#1665A1"/>
		<stop  offset="0.8084" style="stop-color:#1C64A1"/>
		<stop  offset="0.8684" style="stop-color:#475693"/>
		<stop  offset="0.9219" style="stop-color:#554687"/>
		<stop  offset="0.9666" style="stop-color:#5B357E"/>
		<stop  offset="0.997" style="stop-color:#5D2D7B"/>
		<stop  offset="1" style="stop-color:#5D2D7B"/>
	</linearGradient>
	<path class="st0" d="M177.7,45.6c0,0-39.1,39.4-42.5,42.8c0.2-3.8,1-18.5,1-18.5c0.2-2.6-1.2-5.1-3.6-6.2c-2.4-1.1-5.2-0.6-7.1,1.3
		c0,0-24.9,24.8-25.5,25.5c0.2-3.5,0.6-9.9,0.6-9.9c0.2-2.6-1.2-4.9-3.6-6c-2.4-1.1-5.2-0.5-7.4,1.5c0,0-3.6,3.7-6,6.1
		c0.1-0.9,1.4-25.2,1.4-25.2c0.2-2.6-1.2-5.1-3.6-6.2c-2.4-1.1-5.3-0.6-7.1,1.3L12.7,114c0,0-4.2,4.4,0,8.9c4.5,4.1,8.9,0,8.9,0
		s46.5-46.7,49.9-50.2c-0.2,3.5-1.3,22.8-1.3,22.8c-0.1,2.3,1,5,3.4,6.1c4.2,2,7-0.9,8.2-2.1c0,0,2.1-2.1,4.5-4.5
		c-0.4,4.3-0.5,9.7-0.6,10.7c0,0.1,0,0.1,0,0.1c-0.2,2.6,1.2,5.1,3.6,6.2c2.4,1.1,5.2,0.6,7.1-1.3c0,0,26.5-26.8,26.5-26.5
		l-1.1,19.6c-0.2,2.7,1.3,5.2,3.7,6.3c2.5,1.1,5.4,0.4,7.3-1.5l53.3-53.8c2.5-2.5,2.6-6.5-0.2-9.3c-1-1-2.6-1.6-4.2-1.6
		C180.4,43.9,178.8,44.5,177.7,45.6"/>
	<g>
		<rect x="264.7" y="39.1" class="st1" width="56" height="0.7"/>
		<rect x="264.7" y="4.1" class="st1" width="56" height="0.7"/>
		<polygon class="st2" points="231.6,36.2 230.2,37.3 230.6,37.6 231.7,37 232.6,37 233.3,36.4 		"/>
		<polygon class="st3" points="267.1,11 277.4,11 276.8,14.1 270.6,14.1 270.6,19.9 275,19.9 275,23 270.6,23 270.6,31.4 
			267.1,31.4 		"/>
		<polygon class="st3" points="306.5,11 310,11 310,21.2 310.8,21.2 313.8,15.2 317.6,15.2 313.5,22.6 318.4,31.4 314.5,31.4 
			310.6,23.9 310,23.9 310,31.4 306.5,31.4 		"/>
		<path class="st3" d="M283.4,26.5c0,1.3-1.2,2.4-2.3,2.4c-1,0-1.7-0.8-1.7-2.1c0-0.2,0.1-1,0.5-1.5c0.8-1,3.2-1.5,3.4-1.5V26.5z
			 M281.8,15c-1.3,0-2.6,0.5-3.5,1.4c-0.9,0.9-1.4,2.1-1.5,3.5h3.1c0.2-1.1,0.7-1.9,1.9-1.9c1.2,0,1.6,0.7,1.6,1.8v1.5
			c-0.7,0.2-3.2,0.4-5,1.5c-0.9,0.6-2.1,1.8-2.1,4.4c0,3,1.8,4.2,3.6,4.3c1.8,0.2,2.7-0.4,3.4-1.4l0.3,1.3h3.1V19.8
			C286.7,16.4,284.5,15,281.8,15"/>
		<path class="st1" d="M251.4,40c2,0,3.6-1.6,3.6-3.6v-29c0-2-1.6-3.6-3.6-3.6h-29c-2,0-3.6,1.6-3.6,3.6v29c0,2,1.6,3.6,3.6,3.6
			H251.4z"/>
		<path class="st2" d="M240.7,26.6c-1.5,0.1-2.6-0.9-2.6-0.9l0.6-0.4c0,0,0.7,0.5,1.4,0.6c0.7,0,1-0.1,1-0.1l-2-0.8l0.6-0.4l3.1,1.2
			C242.9,25.8,242.3,26.5,240.7,26.6"/>
		<path class="st2" d="M240.4,27.1l0-0.1c0,0,0.4,0.1,0.8,0c0.4-0.1,0.6-0.1,0.6-0.1l0.9,0.9l8,3.7c0,0,0,0.2-0.3,0.4
			c-0.2,0.2-0.5,0.3-0.5,0.3L240.4,27.1z"/>
		<path class="st2" d="M235.2,30.8c0,0-0.2-0.1-0.5-0.2c-0.3-0.1-0.5-0.3-0.5-0.3l1.3,3.3l-0.9,2.4l0.8,0.1l0.9-2.7L235.2,30.8z"/>
		<path class="st2" d="M227.7,28.3l0.2,0.1c0.4,0.1,0.8,0.1,1.4-0.3c0.2-0.1,0.8-0.3,1.3-0.3c0,0,0.8,0,0.9,0
			c1.2,1.6,3.5,2.6,4.2,2.9l1.2,2.7l-1.2,3l-1.8-0.2l-1.3,1.1l0.4,0.2l1.1-0.5l2,0.3l2.5-0.2l0.8,0.3l0.4-0.2l-1-0.9l-2.1,0l1.2-3.1
			c0,0-1.6-3.4-1.6-3.5c-0.6-1.5-1.6-1.7-2.1-1.8l-0.3,0.5c0.3,0.1,0.8,0.4,1.3,1c-0.8-0.4-1.9-1-2.6-1.7c-0.5-0.5-0.8-1.1-1-1.4
			c0,0-0.1,0.5-0.1,0.6c-0.7,0-1.3,0-1.9,0.2c-0.3,0.1-0.5,0.2-0.7,0.4c-0.2,0.1-0.3,0.2-0.5,0.3c0-0.1,0.1-0.2,0.1-0.3
			c0-0.1,0-0.2-0.1-0.3c-0.1-0.1-0.2-0.2-0.4-0.3c-0.5-0.1-0.8,0.2-1.1,0.5c0,0,0-0.1,0-0.1c0,0,0,0,0,0c0-0.2,0.2-0.6,0.5-0.8
			c0,0,0,0,0,0c0.2,0,0.4,0,0.6-0.2c0,0,0.1,0.2,0.5,0.2c0.7,0,0.6-0.7,0.6-0.7h-0.4c0,0,0,0.2-0.2,0.2c-0.1,0-0.2-0.2-0.1-0.3
			c0.7-0.7,1.2-0.7,1.3-0.6c0,0,0.2-0.6,0.2-0.6c-0.3-0.1-0.9-0.1-1.7,0.8c-0.3,0.4-0.6,0.7-0.8,0.6c-0.8-0.4,1.1-2.1,2.9-2.5
			c0,0.1-0.1,0.5-0.1,0.5s0.9-0.5,2.1-0.5c0.8,0,1.6,0.2,1.6,0.2s0-0.2,0.1-0.3c0.1-0.2,0.2-0.3,0.2-0.3s-1.5-0.5-3.5,0
			c0-0.1,0.2-0.5,0.2-0.5l-0.2,0.1c-2.2,0.9-3.6,1.7-3.9,2.6c-0.1,0.2-0.2,0.6,0,0.9c-0.5,0.5-0.6,0.9-0.6,1.2c0,0,0,0.1,0,0.1
			c0,0.3,0.2,0.6,0.6,0.8c0.1,0.1,0.2,0.1,0.2,0.1l0.1-0.1l-0.1-0.1c0,0,0.1-0.3,0.2-0.5c0.1-0.2,0.2-0.5,0.5-0.4
			c0.3,0.1,0.1,0.3,0.1,0.5C227.8,28.2,227.7,28.3,227.7,28.3"/>
		<path class="st2" d="M244.3,29.7l5,2.7c0,0-0.2,0.3-0.4,0.4c-0.2,0.1-0.5,0.2-0.5,0.2l-4.6-3.1L244.3,29.7z"/>
		<path class="st2" d="M242.8,30.1l0.5-0.1l4.1,3.2c0,0-0.1,0.2-0.4,0.3c-0.2,0.1-0.6,0.2-0.6,0.2L242.8,30.1z"/>
		<path class="st2" d="M241.7,30l0.6,0.1l3.2,3.5c0,0-0.2,0.2-0.5,0.3c-0.3,0.1-0.5,0.1-0.5,0.1L241.7,30z"/>
		<path class="st2" d="M243.4,33.3c0,0-0.2,0.1-0.5,0.2c-0.3,0.1-0.6,0-0.6,0l-1.6-3.1l-2.1-0.7l-0.2-0.6l2.6,0.7L243.4,33.3z"/>
		<path class="st2" d="M238.5,31.2l-0.1,0.6l1.5,2c0,0,0.2-0.1,0.3-0.3c0.1-0.2,0.1-0.5,0.1-0.5L238.5,31.2z"/>
		<path class="st2" d="M238.6,30.1l0,0.6l1.9,1.8c0,0,0.1-0.1,0.2-0.3c0.1-0.3,0-0.6,0-0.6L238.6,30.1z"/>
		<path class="st2" d="M238.3,32.2l-0.2,0.5l1,2.1c0,0,0.2,0,0.4-0.2c0.1-0.2,0.2-0.4,0.2-0.4L238.3,32.2z"/>
		<path class="st2" d="M229.1,8.6c-0.1-0.2-0.3-0.5-0.7-0.7c-0.4-0.3-1-0.2-1-0.2l1.7,6.7l0.8,0.4L229.1,8.6z"/>
		<path class="st2" d="M231.7,10.2c-0.1-0.3-0.2-0.5-0.6-0.8c-0.4-0.3-0.9-0.4-0.9-0.4l0.6,6.3l0.7,0.5L231.7,10.2z"/>
		<path class="st2" d="M233.9,12.3c0-0.3-0.1-0.5-0.4-0.8c-0.3-0.4-0.8-0.5-0.8-0.5l-0.5,5.5l0.6,0.5L233.9,12.3z"/>
		<path class="st2" d="M235.5,14.4c0-0.3,0-0.5-0.2-0.8c-0.3-0.4-0.6-0.5-0.6-0.5l-1.3,4.5l0.5,0.6L235.5,14.4z"/>
		<path class="st2" d="M236.6,16.5c0-0.3,0-0.4-0.1-0.7c-0.2-0.4-0.5-0.5-0.5-0.5l-1.6,3.7l0.4,0.6L236.6,16.5z"/>
		<path class="st2" d="M237.3,18.7c0.1-0.3,0.1-0.5,0-0.7c-0.1-0.3-0.4-0.5-0.4-0.5l-1.8,3.1l0.3,0.7L237.3,18.7z"/>
		<path class="st2" d="M226,7.4c-0.2-0.2-0.3-0.4-0.8-0.6c-0.5-0.2-1,0-1,0l3.1,6.9l0.9,0.3L226,7.4z"/>
		<path class="st2" d="M250.6,13.6c0.2-0.2,0.4-0.4,0.5-0.9c0.1-0.5-0.1-1-0.1-1l-5.9,3.6l-0.1,0.8L250.6,13.6z"/>
		<path class="st2" d="M249.8,16.8c0.2-0.2,0.4-0.3,0.6-0.8c0.2-0.5,0.1-1,0.1-1l-5.8,2.4l-0.3,0.8L249.8,16.8z"/>
		<path class="st2" d="M248.6,19.7c0.2-0.1,0.5-0.3,0.7-0.6c0.3-0.4,0.2-1,0.2-1l-5.4,1.1l-0.3,0.7L248.6,19.7z"/>
		<path class="st2" d="M247,22.1c0.3-0.1,0.4-0.2,0.7-0.4c0.3-0.4,0.3-0.7,0.3-0.7l-4.7,0.1l-0.4,0.6L247,22.1z"/>
		<path class="st2" d="M245.3,23.8c0.3,0,0.4-0.1,0.7-0.4c0.3-0.4,0.3-0.6,0.3-0.6l-4.1-0.4l-0.5,0.5L245.3,23.8z"/>
		<path class="st2" d="M243.5,25.1c0.3,0,0.5-0.1,0.6-0.2c0.3-0.2,0.3-0.5,0.3-0.5l-3.5-0.8l-0.5,0.5L243.5,25.1z"/>
		<path class="st2" d="M250.7,10.3c0.1-0.2,0.3-0.4,0.3-1c0-0.5-0.3-0.9-0.3-0.9l-5.6,5l0,0.9L250.7,10.3z"/>
		<path class="st2" d="M235.8,25c-0.2-0.2-0.6-0.6-0.1-1.1l0.2-0.2c2.1-2.1,3.8-3.9,4.4-7.7c0.1-0.1,9.9-8.7,9.9-8.7s0.1-0.3,0-0.5
			c-0.1-0.3-0.3-0.3-0.3-0.3l-10.5,9.1c0,0,0,1.5-1.3,4c-0.8,1.5-3.2,3.7-3.2,3.7c-0.3,0.3-0.6,0.8-0.5,1.5c-0.5-0.1-1.1,0-1.1,0
			l0.1,0.6c0,0,0.8-0.1,1.5,0.1c0.7,0.2,1.2,0.7,1.2,0.7l0.5-0.4C236.8,25.7,236.1,25.2,235.8,25"/>
		<path class="st2" d="M230.5,19.5c-1.2-1-2.2-1.6-2.2-1.6L223,6.6c0,0-0.1,0-0.4-0.1c-0.3,0-0.5,0.1-0.5,0.1l5.4,11.9
			c0,0,1.3,0.8,2.5,1.8c1.2,1.1,2.2,2.3,2.2,2.3s0.3-0.1,0.7-0.1c0.4,0,0.6,0.1,0.6,0.1S232.2,20.9,230.5,19.5"/>
		<path class="st3" d="M298,25.8c0,1.6,0.2,3.1,1.8,3.1c1.4,0,1.9-1.1,1.9-2.5v-0.7h3.3l0,0.7c0,3.1-1.8,5.1-5.2,5.1
			c-4.5,0-5.3-2.8-5.4-7.3l0-0.5c0-5.4,0.4-8.8,5.4-8.8c3.4,0,5.2,2,5.2,5.1l0,0.7h-3.3v-0.7c0-1.3-0.5-2.5-1.9-2.5
			c-1.5,0-1.8,1.6-1.8,3.1L298,25.8z"/>
		<path class="st3" d="M288.5,11l3.5,0v17.4l1.9,1.1v1.9c0,0-2.4,0.2-3.7-0.3c-0.8-0.3-1.7-1.1-1.7-3.5V11z"/>
	</g>
	<path class="st4" d="M309,74.7c-3.3,0-6.2,1.1-8.6,3.2c-2,1.8-4,4.7-6,8.7c0-0.5,0.2-1.1,0.3-2v-1.8c0-2.7-0.7-4.8-2-6.1
		c-1.4-1.3-3.6-2-6.8-2c-3.1,0-5.8,1.1-8.1,3.2c-1.8,1.7-3.7,4.4-5.7,8.2c0.7-3.4,1-5.2,1.4-7.8c0.2-1.4,0.1-3.8-3.1-3.8
		c-0.8,0-1.6,0-3.1,0c-1.1,0-3.7,0-4.4,3.4c-0.7,3.6-1.7,9.5-1.8,10.1l-3,18c-0.7,4-0.3,6.3,3,6.2h6.3c2.1,0,3-1.1,3.7-4.8l1.5-9.2
		c1-6.9,2.5-11.7,4.6-14.3c1.3-1.7,2.9-2.5,4.8-2.5c1,0,1.7,0.4,2.2,1.3c0.4,0.8,0.7,1.9,0.7,3.3c0,0.8-0.1,1.6-0.2,2.5l-3.3,17.7
		c-0.7,4.4-0.1,6,2.2,6h6c2.5,0,3.3-1.6,3.8-4.4l2.1-12.9c0.7-4,1.8-7.1,3.5-9.6c1.6-2.5,3.4-3.7,5.3-3.7c1.3,0,2.2,0.5,2.8,1.4
		c0.4,0.7,0.6,1.7,0.6,3v1.7c0,0-3,17.5-3.1,18.5c-0.6,4.2-0.3,6,2.3,6h5.5c2.5,0,3.1-1.4,3.5-3.6c0.7-3.3,1.7-9.2,1.7-9.2h0
		l1.9-10.6c0.2-1,0.3-2.1,0.3-3.2c0-3.5-1.1-6.3-3.3-8.2C314.5,75.6,312,74.7,309,74.7"/>
	<path class="st4" d="M178.8,83.7l1-5.6c0-0.2,0.2-1.7,1.5-2.6c0.9-0.6,1.8-0.6,2.1-0.6c1.8,0,3.6,0,5.4,0c0.1,0,1.1-0.1,1.7,0.6
		c0.6,0.6,0.8,1.5,0.5,2.4c-1.1,7.2-2.1,14.4-3.2,21.6c0,0.5-0.2,2.6,1.2,3.8c1.7,1.5,5.2,1.1,7.8-1.9c0.6-0.9,1.2-2.1,1.8-3.4
		c0.9-2.2,1.3-4.1,1.5-5.6c0.7-4.6,1.5-9.1,2.2-13.7c0-0.3,0.2-1.8,1.6-2.9c0.8-0.6,1.7-0.8,2.1-0.8c2.1,0,4.2,0,6.2,0
		c0.2,0,1.3,0,2.1,0.8c1.1,1.1,0.7,2.6,0.7,2.7c-2.6,16-4.6,27.7-4.9,29.5c-0.1,0.3-0.2,1.2-0.8,1.9c-0.5,0.5-1,0.8-1.5,1
		c-1.8,0.1-3.6,0.1-5.4,0.2c-0.2,0-1-0.1-1.7-0.7c-0.7-0.7-1-1.7-0.7-2.7c0.3-2.2,0.6-4.4,0.9-6.6c-0.5,1.2-1.4,3-2.9,4.7
		c-1.5,1.8-3.2,2.9-4.3,3.5c-5,2.3-10.3,2.2-13.7-0.5c-1.9-1.5-2.7-3.5-2.8-3.6c-0.2-0.4-0.6-1.5-0.7-3.7c-0.1-2,0.4-4.4,0.6-5.8
		c0.7-4.7,0.5-3.4,1.1-7.2C178.3,86.5,178.6,84.9,178.8,83.7z"/>
	<path class="st5" d="M175.5,100.5"/>
	<path class="st4" d="M218.9,90.6c0.3-1.4,1-3.4,2.2-5.6c4.3-7.3,12-9.6,14.2-10.2c1.9-0.5,7.8-1.7,14.3,0.9
		c1.4,0.6,2.6,1.2,3.7,1.9c0.2,0.2,1.1,1,1.2,2.3c0.1,1-0.4,1.7-0.6,2c-0.9,1.4-2.5,1.6-2.6,1.7c-2,0.2-3.3-1.3-3.3-1.4
		c-0.7-0.6-2.2-1.6-4.2-2.1c-2.8-0.7-5.1,0-6,0.3c-1.2,0.7-2.4,1.7-3.5,2.9c-5.4,6-4,14.5-3.7,16.2c0.2,1,0.8,2.6,2.3,4
		c2.4,2.3,6.3,2.7,9.9,1.3c1.6-0.6,3.5-1.6,5.5-3c0.7-0.5,1.3-1,1.8-1.4c0.2-0.1,0.5-0.2,0.8-0.3c1-0.2,1.7,0.2,2,0.4
		c0.2,0.2,0.5,0.5,0.7,1c0.3,0.9,0,1.7-0.1,1.8c-1.1,1.3-2.8,3.1-5.2,4.7c-3.4,2.2-6.7,2.9-8.7,3.2c-2.3,0.5-8.5,1.6-14.3-2
		c-0.6-0.4-1.9-1.2-3.1-2.5C216.9,101.1,218.5,92.4,218.9,90.6z"/>
	<path class="st5" d="M255.5,82"/>
	<path class="st5" d="M246.8,100.1"/>
	<path class="st5" d="M312.6,73.2"/>
	<path class="st5" d="M320.7,79.6"/>
	<path class="st5" d="M321.1,80.6"/>
	<path class="st5" d="M298.1,93.4"/>
	<path class="st5" d="M272.8,104.5"/>
	<path class="st5" d="M279,72.3"/>
</g>
</svg>
