<svg width="60" height="55" viewBox="0 0 60 55" fill="none" xmlns="http://www.w3.org/2000/svg">
<g clip-path="url(#clip0)">
<g clip-path="url(#clip1)">
<path d="M44.5684 23.8025C44.2841 23.7988 44.0125 23.6839 43.8115 23.4827C43.6105 23.2816 43.4959 23.0099 43.4922 22.7254C43.5513 20.9071 43.2446 19.095 42.5901 17.3976C41.9356 15.7003 40.9467 14.1526 39.6823 12.8454C38.4179 11.5382 36.9038 10.4987 35.23 9.78882C33.5562 9.07895 31.7569 8.71316 29.939 8.71316C28.1211 8.71316 26.3218 9.07895 24.648 9.78882C22.9742 10.4987 21.4601 11.5382 20.1957 12.8454C18.9313 14.1526 17.9424 15.7003 17.2879 17.3976C16.6334 19.095 16.3267 20.9071 16.3858 22.7254C16.3858 23.0111 16.2724 23.285 16.0705 23.4869C15.8687 23.6889 15.595 23.8025 15.3096 23.8025C15.0242 23.8025 14.7504 23.6889 14.5486 23.4869C14.3468 23.285 14.2334 23.0111 14.2334 22.7254C14.235 19.6165 15.1574 16.5778 16.884 13.9933C18.6107 11.4088 21.0641 9.39431 23.9343 8.20478C26.8044 7.01526 29.9624 6.70396 33.0094 7.31004C36.0563 7.91613 38.8554 9.4123 41.0528 11.6099C42.5172 13.0647 43.6774 14.7972 44.4658 16.7055C45.2542 18.6139 45.6549 20.6604 45.6446 22.7254C45.6446 22.8669 45.6168 23.0071 45.5627 23.1377C45.5086 23.2684 45.4293 23.3869 45.3294 23.4869C45.2295 23.587 45.1109 23.6663 44.9803 23.7204C44.8497 23.7746 44.7097 23.8025 44.5684 23.8025Z" fill="#076BAE"/>
<path d="M39.2158 46.4207H35.2266C34.9412 46.4207 34.6675 46.3071 34.4657 46.1051C34.2639 45.9031 34.1504 45.6293 34.1504 45.3436C34.1504 45.058 34.2639 44.7841 34.4657 44.5821C34.6675 44.3801 34.9412 44.2665 35.2266 44.2665H39.2158C40.3452 44.2667 41.4294 43.8228 42.2347 43.0303C43.04 42.2378 43.5019 41.16 43.5207 40.0298V38.6947C43.5207 38.4091 43.6341 38.1345 43.8359 37.9325C44.0378 37.7305 44.3115 37.6177 44.5969 37.6177C44.8824 37.6177 45.1561 37.7305 45.3579 37.9325C45.5598 38.1345 45.6732 38.4091 45.6732 38.6947V40.0298C45.6713 40.8746 45.5024 41.7105 45.1764 42.4897C44.8503 43.2689 44.3735 43.9762 43.7733 44.5702C43.1731 45.1642 42.4615 45.6333 41.6793 45.9509C40.8971 46.2684 40.0599 46.4282 39.2158 46.4207Z" fill="#076BAE"/>
<path d="M32.6004 48.0143H29.9457C29.5959 48.0143 29.2495 47.9454 28.9265 47.811C28.6035 47.6766 28.3102 47.4793 28.0635 47.2311C27.8168 46.9829 27.6216 46.6884 27.489 46.3644C27.3564 46.0404 27.2892 45.6935 27.2911 45.3434C27.2911 44.6388 27.5708 43.9631 28.0686 43.4649C28.5665 42.9667 29.2416 42.6866 29.9457 42.6866H32.6004C32.9502 42.6847 33.2969 42.7516 33.6207 42.8843C33.9444 43.017 34.2388 43.2124 34.4868 43.4593C34.7348 43.7062 34.9317 43.9999 35.066 44.3232C35.2003 44.6465 35.2694 44.9933 35.2694 45.3434C35.2694 46.0519 34.9882 46.7309 34.4877 47.2318C33.9871 47.7327 33.3083 48.0143 32.6004 48.0143Z" fill="#3FBFEB"/>
<path d="M29.9458 37.3013C27.7088 37.2991 25.5537 36.4587 23.9047 34.946C23.7218 34.7488 23.6192 34.4906 23.6172 34.2216C23.6152 33.9526 23.714 33.6923 23.8939 33.4924C24.0738 33.2925 24.3219 33.1671 24.5895 33.1411C24.857 33.1151 25.1247 33.1906 25.3396 33.3521C26.592 34.5036 28.2308 35.1423 29.9315 35.1423C31.6322 35.1423 33.2709 34.5036 34.5233 33.3521C34.625 33.2425 34.7484 33.1555 34.8856 33.0962C35.0227 33.0369 35.1707 33.0067 35.3201 33.0078C35.4696 33.009 35.6171 33.0412 35.7534 33.1025C35.8897 33.1638 36.0117 33.253 36.1117 33.3641C36.2117 33.4752 36.2875 33.6056 36.3343 33.7476C36.381 33.8896 36.3978 34.0398 36.3833 34.1887C36.3689 34.3375 36.3236 34.4818 36.2505 34.6122C36.1773 34.7426 36.0778 34.8562 35.9583 34.946C34.315 36.4496 32.1723 37.2892 29.9458 37.3013Z" fill="#076BAE"/>
<path d="M24.6226 27.8665C24.3383 27.8628 24.0667 27.7479 23.8657 27.5467C23.6647 27.3455 23.5501 27.0739 23.5464 26.7894V24.4628C23.5464 24.1771 23.6598 23.9033 23.8616 23.7013C24.0634 23.4993 24.3372 23.3857 24.6226 23.3857C24.908 23.3857 25.1818 23.4993 25.3836 23.7013C25.5854 23.9033 25.6988 24.1771 25.6988 24.4628V26.8609C25.6806 27.134 25.5592 27.3902 25.3593 27.5769C25.1594 27.7636 24.896 27.8671 24.6226 27.8665Z" fill="#076BAE"/>
<path d="M35.2696 27.8665C34.9841 27.8665 34.7104 27.7529 34.5086 27.5509C34.3067 27.3489 34.1934 27.0751 34.1934 26.7894V24.4628C34.1934 24.1771 34.3067 23.9033 34.5086 23.7013C34.7104 23.4993 34.9841 23.3857 35.2696 23.3857C35.555 23.3857 35.8288 23.4993 36.0306 23.7013C36.2324 23.9033 36.3458 24.1771 36.3458 24.4628V26.8609C36.3243 27.1328 36.2019 27.3866 36.0027 27.5727C35.8036 27.7587 35.542 27.8637 35.2696 27.8665Z" fill="#076BAE"/>
<path d="M16.6439 38.6944H15.3094C13.8999 38.6906 12.5494 38.1274 11.5542 37.1286C10.5589 36.1299 9.99999 34.7765 10 33.3659V28.0382C10 26.6289 10.5593 25.2776 11.555 24.2811C12.5507 23.2846 13.9012 22.7251 15.3094 22.7251H16.6439C16.9953 22.7251 17.3326 22.8634 17.5824 23.1108C17.8323 23.3581 17.9746 23.6945 17.9784 24.0462V37.3586C17.9784 37.7128 17.8378 38.0527 17.5875 38.3032C17.3372 38.5536 16.9978 38.6944 16.6439 38.6944Z" fill="#3FBFEB"/>
<path d="M44.5682 38.6943H43.2481C42.8941 38.6943 42.5547 38.5535 42.3045 38.303C42.0542 38.0526 41.9136 37.7127 41.9136 37.3585V23.9886C41.9174 23.6368 42.0596 23.3005 42.3094 23.0531C42.5593 22.8058 42.8966 22.6675 43.2481 22.6675H44.5682C45.9777 22.6675 47.3296 23.2267 48.3276 24.2228C49.3256 25.2188 49.8881 26.57 49.8919 27.9805V33.309C49.8995 34.0135 49.7674 34.7119 49.5032 35.365C49.2391 36.018 48.8482 36.6123 48.3531 37.1131C47.858 37.6139 47.2685 38.0114 46.6189 38.2827C45.9692 38.554 45.2722 38.6944 44.5682 38.6943Z" fill="#3FBFEB"/>
</g>
</g>
<defs>
<clipPath id="clip0">
<rect width="59.4896" height="54.3165" fill="white"/>
</clipPath>
<clipPath id="clip1">
<rect width="39.8919" height="41" fill="white" transform="translate(10 7)"/>
</clipPath>
</defs>
</svg>
