<?xml version="1.0" encoding="utf-8"?>
<!-- Generator: Adobe Illustrator 23.0.3, SVG Export Plug-In . SVG Version: 6.00 Build 0)  -->
<svg version="1.1" id="Layer_1" xmlns="http://www.w3.org/2000/svg" xmlns:xlink="http://www.w3.org/1999/xlink" x="0px" y="0px"
	 viewBox="0 0 256 256" style="enable-background:new 0 0 256 256;" xml:space="preserve">
<style type="text/css">
	.st0{fill:#3A4B55;}
</style>
<g>
	<path class="st0" d="M243.52,204.52l-0.57-1.57l-45.65-34.19l-28.05,26.08C95.24,159.25,66.88,100.86,60.99,86.92L87.24,58.7
		L53.05,13.05l-1.57-0.57c-4.02-1.45-12.78-2.08-20.02,4.74l-0.57,0.55c-6.15,6.15-57.31,62.88,37.03,161.52l8.88,8.89
		c98.55,94.25,155.29,43.08,161.43,36.94l0.5-0.51C245.6,217.3,244.97,208.54,243.52,204.52z"/>
	<polygon class="st0" points="159.9,115.2 214.16,60.95 227.26,74.05 233.58,20.08 179.61,26.4 192.71,39.5 138.46,93.75 	"/>
</g>
</svg>
