<?xml version="1.0" encoding="utf-8"?>
<!-- Generator: Adobe Illustrator 23.0.3, SVG Export Plug-In . SVG Version: 6.00 Build 0)  -->
<svg version="1.1" id="Layer_1" xmlns="http://www.w3.org/2000/svg" xmlns:xlink="http://www.w3.org/1999/xlink" x="0px" y="0px"
	 viewBox="0 0 256 256" style="enable-background:new 0 0 256 256;" xml:space="preserve">
<style type="text/css">
	.st0{fill:#3A4B55;}
</style>
<g>
	<path class="st0" d="M244.77,205.35l-0.57-1.59l-46.15-34.56l-28.35,26.37c-74.82-35.97-103.48-95-109.44-109.09l26.53-28.53
		L52.24,11.8l-1.59-0.58c-4.07-1.47-12.92-2.11-20.23,4.79l-0.58,0.55c-6.21,6.21-57.94,63.57,37.43,163.28l8.98,8.98
		c99.63,95.27,156.98,43.55,163.19,37.34l0.5-0.51C246.88,218.27,246.25,209.42,244.77,205.35z"/>
	<path class="st0" d="M117.18,29.83c26.47,2.04,52.34,13.28,72.36,33.67c20.01,20.4,30.76,46.48,32.3,72.98
		c0.25,4.27,3.66,7.78,7.94,7.82l3.99,0.04c4.28,0.04,7.81-3.4,7.6-7.68c-1.52-31.51-14.14-62.6-37.92-86.82
		c-23.78-24.23-54.63-37.44-86.1-39.55c-4.27-0.28-7.78,3.18-7.82,7.46l-0.04,3.99C109.46,26.02,112.9,29.5,117.18,29.83z"/>
	<path class="st0" d="M116.87,61.62c18.34,1.9,36.14,9.94,50.03,24.1c13.89,14.16,21.59,32.1,23.14,50.47
		c0.36,4.27,3.76,7.78,8.05,7.82l3.99,0.03c4.28,0.04,7.82-3.41,7.53-7.68c-1.55-23.38-11.14-46.32-28.8-64.31
		c-17.66-18-40.42-28.02-63.76-30c-4.27-0.36-7.78,3.11-7.82,7.39l-0.04,3.99C109.16,57.71,112.61,61.18,116.87,61.62z"/>
</g>
</svg>
