<?xml version="1.0" encoding="utf-8"?>
<!-- Generator: Adobe Illustrator 24.0.1, SVG Export Plug-In . SVG Version: 6.00 Build 0)  -->
<svg version="1.1" id="Layer_1" xmlns="http://www.w3.org/2000/svg" xmlns:xlink="http://www.w3.org/1999/xlink" x="0px" y="0px"
	 viewBox="0 0 256 256" style="enable-background:new 0 0 256 256;" xml:space="preserve">
<style type="text/css">
	.st0{fill:#3A4B55;}
</style>
<path id="Path_688" class="st0" d="M102.8,26.6c19.1-0.1,37.7,6.2,52.8,18c13.2,10.7,21.5,26.3,22.8,43.2
	c13.6,3.4,26.1,10.4,36,20.4c9.6,11.5,15.1,25.8,15.6,40.8c-0.1,8.4-2.2,16.6-6,24c-3.3,6.7-7.8,12.8-13.2,18v30l0,0
	c0.2,1.7-0.2,3.4-1.2,4.8c-2.3,3.6-7.2,4.7-10.8,2.4c0,0,0,0,0,0l-25.2-16.8c-2.7,1-5.5,1.4-8.4,1.2c-3.6,0-8.4,1.2-12,1.2
	c-19.1,0.1-37.7-6.2-52.8-18c-12-10.1-20.1-24.1-22.8-39.6L56,170.6c-3.6,2.3-8.5,1.2-10.8-2.4c0,0,0,0,0,0
	c-1.2-1.2-1.2-2.4-1.2-4.8l0,0v-30c-5.3-5-9.4-11.2-12-18c-3.8-7.4-5.9-15.6-6-24c0.2-18.2,8.6-35.4,22.8-46.8
	C64.3,32.8,83.3,26.5,102.8,26.6z M77.6,83c4.6,0,8.4,3.8,8.4,8.4s-3.8,8.4-8.4,8.4s-8.4-3.8-8.4-8.4c-0.1-4.5,3.5-8.3,8-8.4
	C77.3,83,77.5,83,77.6,83z M102.8,83c4.2,0.4,7.4,4.1,7.2,8.4c0.1,4.5-3.5,8.3-8,8.4c-0.1,0-0.2,0-0.4,0c-4.2-0.4-7.4-4.1-7.2-8.4
	c-0.1-4.5,3.5-8.3,8-8.4C102.5,83,102.7,83,102.8,83z M126.8,83c4.6,0,8.4,3.8,8.4,8.4s-3.8,8.4-8.4,8.4s-8.4-3.8-8.4-8.4
	C119.1,87.1,122.5,83.7,126.8,83z M177.2,104.6c-3.4,13.2-11,25-21.6,33.6c-14.8,12.3-33.6,18.7-52.8,18h-8.4
	c1.5,11.1,7.6,21.2,16.8,27.6c12.2,9.9,27.5,15,43.2,14.4c3.2,0.3,6.5-0.1,9.6-1.2c3.3-0.2,6.6-1,9.6-2.4c2.5-0.8,5.1-0.3,7.2,1.2
	l15.6,10.8v-19.2c0-2.2,0.9-4.4,2.4-6l0,0c4.7-4.7,8.7-9.9,12-15.6c2.5-5.3,3.7-11,3.6-16.8c-0.4-11.1-4.6-21.7-12-30
	C195.2,112.4,186.6,107.4,177.2,104.6L177.2,104.6z M146,56.6c-12.5-9.2-27.7-14.2-43.2-14.4c-15.9,0.2-31.4,5.2-44.4,14.4
	c-10,8.9-16,21.4-16.8,34.8c0,6.2,1.3,12.3,3.6,18c2.9,6,7,11.3,12,15.6l0,0c1.5,1.6,2.4,3.8,2.4,6v19.2l15.6-10.8
	c2.1-1.5,4.7-2,7.2-1.2c1.2,0,3.6,1.2,4.8,1.2l0,0c1.7-0.1,3.3,0.4,4.8,1.2c3.6,0,6,1.2,9.6,1.2c16.2-0.8,31.7-6.7,44.4-16.8
	c10.8-8.3,17.1-21.2,16.8-34.8C162.8,78.2,155.6,66.2,146,56.6z"/>
</svg>
