<?xml version="1.0" encoding="utf-8"?>
<!-- Generator: Adobe Illustrator 24.0.1, SVG Export Plug-In . SVG Version: 6.00 Build 0)  -->
<svg version="1.1" id="Layer_1" xmlns="http://www.w3.org/2000/svg" xmlns:xlink="http://www.w3.org/1999/xlink" x="0px" y="0px"
	 viewBox="0 0 256 256" style="enable-background:new 0 0 256 256;" xml:space="preserve">
<style type="text/css">
	.st0{fill:#3A4B55;}
</style>
<path id="Path_609" class="st0" d="M31.6,108.1c-3.9,0.3-7.4-2.7-7.6-6.6c0-0.3,0-0.7,0-1V85.2h61.7v15.2c0.3,3.9-2.7,7.4-6.6,7.6
	c-0.3,0-0.7,0-1,0H31.6z M238.1,78.3v1.4h-61.7v-1.4c0-8.3-15.2-12.5-45.7-12.5S84.9,70,84.9,78.3v1.4H23.2v-1.4
	c-0.1-1.6,0.2-3.3,0.7-4.9c1-2.7,2.4-5.3,4.2-7.6c2.3-3.2,4.9-6.2,7.6-9c4-3.5,8.5-6.5,13.2-9c6.3-3.1,12.8-5.9,19.4-8.3
	c8.8-2.6,17.9-4.4,27-5.5c11.7-1.4,23.5-2.1,35.3-2.1c11.8,0,23.6,0.7,35.3,2.1c9.1,1.2,18.2,3.1,27,5.5c6.8,1.9,13.3,4.7,19.4,8.3
	c4.8,2.3,9.3,5.4,13.2,9c2.9,2.6,5.5,5.7,7.6,9c1.8,2.3,3.2,4.9,4.2,7.6C237.4,74.9,238.1,76.9,238.1,78.3z M238.1,84.6v15.2
	c0.3,3.9-2.7,7.4-6.6,7.6c-0.3,0-0.7,0-1,0h-45.7c-3.9,0.3-7.4-2.7-7.6-6.6c0-0.3,0-0.7,0-1V84.6L238.1,84.6z"/>
<path id="Path_687" class="st0" d="M134.1,110.2c-33.3,0-60.3,27-60.3,60.3s27,60.3,60.3,60.3c33.3,0,60.3-27,60.3-60.3l0,0
	C194.4,137.2,167.4,110.2,134.1,110.2z M134.1,219.7c-27.2,0-49.2-22-49.2-49.2s22-49.2,49.2-49.2c27.2,0,49.2,22,49.2,49.2
	C183.2,197.6,161.3,219.6,134.1,219.7z"/>
<path id="Path_686" class="st0" d="M157.1,147.9c-2-2.1-5.4-2.2-7.6-0.2c-0.1,0.1-0.1,0.1-0.2,0.2l-14.8,14.8l-14.8-14.8
	c-2.2-2.1-5.7-2-7.8,0.2c-2,2.1-2,5.4,0,7.5l14.8,14.8l-14.8,14.8c-2.1,2-2.2,5.4-0.2,7.6c0.1,0.1,0.1,0.1,0.2,0.2
	c2.4,2,5.8,2,8.1,0l14.8-14.8l14.8,14.8c2.4,2,5.8,2,8.1,0c2.1-2,2.2-5.4,0.2-7.6c-0.1-0.1-0.1-0.1-0.2-0.2L143,170.5l14.8-14.8
	C159,153.2,158.7,150.2,157.1,147.9z"/>
</svg>
