<?xml version="1.0" encoding="utf-8"?>
<!-- Generator: Adobe Illustrator 22.1.0, SVG Export Plug-In . SVG Version: 6.00 Build 0)  -->
<svg version="1.1" id="Capa_1" xmlns="http://www.w3.org/2000/svg" xmlns:xlink="http://www.w3.org/1999/xlink" x="0px" y="0px"
	 viewBox="0 0 218.5 279.5" style="enable-background:new 0 0 218.5 279.5;" xml:space="preserve">
<style type="text/css">
	.st0{fill:#FFFFFF;}
</style>
<g>
	<path class="st0" d="M34.5,103.2V80.8c0-3.8,2-7.2,5-9.1c4-35,33.8-62.2,69.8-62.2S175,36.7,179,71.7c3,1.9,5,5.3,5,9.1v22.4
		c0,6-4.8,10.8-10.8,10.8c-6,0-10.8-4.9-10.8-10.8v-4.7c-5.9,29.4-27.4,56.7-53.1,56.7c-25.8,0-47.3-27.3-53.1-56.7v4.7
		c0,4.9-3.2,8.9-7.6,10.3c4.3,14.6,13.8,27.3,27,35.6c2.4-0.8,5.5-0.7,8.5,0.9c4.8,2.5,7.2,7.3,5.4,10.8c-1.8,3.4-7.1,4.2-11.9,1.7
		c-3.5-1.8-5.7-4.9-6-7.8c-15.1-9.6-25.8-24.4-30.2-41.4C37.3,111.6,34.5,107.8,34.5,103.2L34.5,103.2z M46.8,69.2
		c0.3,0,0.6,0,0.9,0.2c0.8,0.3,1.3,0.8,1.8,1.5c2.3,1,4.2,2.8,5.3,5.1c3.2-29.9,26.3-45.7,54.4-45.7s51.2,15.8,54.3,45.7
		c1.6-3.1,4.6-5.3,8.2-5.8c-4.7-30.4-30.9-53.7-62.5-53.7C77.9,16.4,51.9,39.3,46.8,69.2L46.8,69.2z M46.8,69.2"/>
</g>
<path class="st0" d="M200.7,234.5c0,10.4-3,19.3-8.9,26.7c-6,7.4-13.1,11.1-21.5,11.1h-122c-8.4,0-15.5-3.7-21.5-11.1
	c-6-7.4-8.9-16.3-8.9-26.7c0-8.1,0.4-15.7,1.2-22.9c0.8-7.2,2.3-14.4,4.5-21.7c2.2-7.3,5-13.5,8.4-18.7c3.4-5.2,7.9-9.4,13.4-12.7
	s12-4.9,19.2-4.9c12.5,12.2,27.4,18.3,44.7,18.3c17.3,0,32.2-6.1,44.7-18.3c7.2,0,13.6,1.6,19.2,4.9c5.6,3.3,10,7.5,13.4,12.7
	c3.4,5.2,6.2,11.4,8.4,18.7c2.2,7.3,3.7,14.5,4.5,21.7C200.3,218.8,200.7,226.4,200.7,234.5z"/>
</svg>
