<svg width="60" height="55" viewBox="0 0 60 55" fill="none" xmlns="http://www.w3.org/2000/svg">
<g clip-path="url(#clip0)">
<path d="M31.1636 51.0001C29.5153 50.997 27.9 50.5316 26.4964 49.6555C18.9948 44.7078 12.5069 38.3374 7.38937 30.8945C6.31755 29.2492 5.84715 27.2756 6.05968 25.3157C6.27221 23.3558 7.15427 21.5328 8.55306 20.1629L9.62916 19.0974C10.3009 18.4401 11.1981 18.0728 12.1317 18.0728C13.0653 18.0728 13.9625 18.4401 14.6343 19.0974L19.2014 23.5879C19.5295 23.9096 19.7904 24.2949 19.9686 24.7209C20.1468 25.1469 20.2386 25.605 20.2386 26.0678C20.2386 26.5305 20.1468 26.9886 19.9686 27.4146C19.7904 27.8407 19.5295 28.226 19.2014 28.5478C19.0515 28.6913 18.932 28.8642 18.8503 29.0561C18.7687 29.2481 18.7265 29.4549 18.7265 29.6639C18.7265 29.873 18.7687 30.0799 18.8503 30.2718C18.932 30.4638 19.0515 30.6367 19.2014 30.7802C19.3692 30.9589 19.462 31.1967 19.4602 31.4434C19.4583 31.6901 19.362 31.9265 19.1916 32.1026C19.0211 32.2787 18.7898 32.3808 18.5465 32.3873C18.3033 32.3939 18.067 32.3043 17.8876 32.1376C17.5595 31.8158 17.2986 31.4304 17.1204 31.0044C16.9423 30.5784 16.8504 30.1205 16.8504 29.6577C16.8504 29.195 16.9423 28.7369 17.1204 28.3109C17.2986 27.8848 17.5595 27.4994 17.8876 27.1777C18.0385 27.0376 18.1588 26.8672 18.2407 26.6771C18.3226 26.487 18.3643 26.2815 18.3631 26.0741C18.3645 25.8648 18.323 25.6574 18.2411 25.4653C18.1592 25.2731 18.0389 25.1003 17.8876 24.9578L13.3204 20.4673C13.0089 20.1551 12.5885 19.9801 12.1505 19.9801C11.7124 19.9801 11.2921 20.1551 10.9805 20.4673L9.89193 21.5329C8.7991 22.5814 8.10685 23.9876 7.93743 25.5032C7.768 27.0188 8.1323 28.5465 8.96598 29.8163C13.9089 37.0275 20.1698 43.211 27.4098 48.0319C28.7284 48.8464 30.2749 49.1982 31.8104 49.0331C33.3459 48.8681 34.7852 48.1952 35.906 47.1185L36.9946 46.053C37.1446 45.9095 37.264 45.7366 37.3457 45.5446C37.4273 45.3527 37.4695 45.1457 37.4695 44.9367C37.4695 44.7276 37.4273 44.5209 37.3457 44.3289C37.264 44.137 37.1446 43.9639 36.9946 43.8204L32.4274 39.33C32.104 39.0367 31.6852 38.8745 31.2512 38.8745C30.8172 38.8745 30.3985 39.0367 30.075 39.33C29.4032 39.9873 28.5061 40.3545 27.5725 40.3545C26.6389 40.3545 25.7417 39.9873 25.0699 39.33C24.8942 39.1516 24.7955 38.9098 24.7955 38.6577C24.7955 38.4056 24.8942 38.1637 25.0699 37.9853C25.2459 37.8072 25.4844 37.7071 25.7331 37.7071C25.9818 37.7071 26.2203 37.8072 26.3963 37.9853C26.7109 38.2916 27.1301 38.4626 27.5662 38.4626C28.0023 38.4626 28.4216 38.2916 28.7362 37.9853C29.4165 37.3452 30.3105 36.9894 31.2387 36.9894C32.167 36.9894 33.0609 37.3452 33.7413 37.9853L38.3084 42.4759C38.643 42.8053 38.9085 43.1997 39.0891 43.6357C39.2697 44.0716 39.3617 44.5401 39.3595 45.0129C39.3646 45.4861 39.274 45.9553 39.0932 46.3916C38.9124 46.828 38.6453 47.2222 38.3084 47.5499L37.2323 48.6154C35.5867 50.171 33.4136 51.025 31.1636 51.0001Z" fill="#076BAE"/>
<path fill-rule="evenodd" clip-rule="evenodd" d="M40.2728 3.00002C37.7446 2.97614 35.2521 3.60515 33.0301 4.82798C30.8081 6.0508 28.9298 7.82718 27.5723 9.98946C26.2773 12.0935 25.5804 14.5191 25.5583 16.999C25.5362 19.479 26.1899 21.917 27.4472 24.0444L23.6934 34.7885L34.5545 30.1585C37.241 31.2411 40.1746 31.5322 43.0171 30.998C45.8597 30.4639 48.4955 29.1262 50.6208 27.1394C52.6717 25.2316 54.0856 22.7238 54.6664 19.9642C55.2472 17.2045 54.9659 14.3302 53.8616 11.74C52.6745 9.10579 50.7585 6.8776 48.3463 5.32612C45.9341 3.77463 43.1294 2.96659 40.2728 3.00002Z" fill="#F09420"/>
<path d="M45.3778 23.2072H34.7044C34.2121 23.2038 33.7411 23.0032 33.3942 22.6491C33.0472 22.295 32.8525 21.8162 32.8525 21.3171V14.4926C32.8525 13.9947 33.0477 13.5172 33.395 13.1651C33.7422 12.813 34.2133 12.6152 34.7044 12.6152H45.3778C45.8701 12.6152 46.3425 12.8126 46.6917 13.1643C47.041 13.516 47.2389 13.9935 47.2422 14.4926V21.3171C47.2422 21.5653 47.194 21.8111 47.1003 22.0404C47.0066 22.2697 46.8693 22.4781 46.6962 22.6536C46.523 22.8291 46.3175 22.9683 46.0913 23.0633C45.8651 23.1583 45.6227 23.2072 45.3778 23.2072ZM34.7044 13.8837C34.6251 13.882 34.5462 13.8966 34.4726 13.9266C34.3989 13.9566 34.332 14.0014 34.2759 14.0582C34.2198 14.1151 34.1756 14.1829 34.1461 14.2575C34.1165 14.3322 34.1021 14.4122 34.1038 14.4926V21.3171C34.1022 21.3981 34.1165 21.4787 34.1459 21.554C34.1753 21.6294 34.2193 21.6981 34.2752 21.756C34.3312 21.8138 34.398 21.8597 34.4717 21.8911C34.5453 21.9225 34.6245 21.9387 34.7044 21.9387H45.3778C45.5404 21.9387 45.6964 21.8733 45.8114 21.7567C45.9264 21.6402 45.991 21.482 45.991 21.3171V14.4926C45.991 14.4116 45.975 14.3313 45.9441 14.2566C45.9131 14.1819 45.8677 14.1142 45.8106 14.0575C45.7535 14.0008 45.6858 13.9562 45.6115 13.9263C45.5372 13.8965 45.4577 13.882 45.3778 13.8837H34.7044Z" fill="white"/>
<path d="M42.8623 13.8836C42.6964 13.8836 42.5372 13.8167 42.4199 13.6978C42.3026 13.5788 42.2367 13.4175 42.2367 13.2493V11.169C42.2439 11.0753 42.2155 10.9824 42.1574 10.9093C42.0992 10.8362 42.0157 10.7885 41.9238 10.7758H38.17C38.1239 10.7806 38.0792 10.7945 38.0384 10.8169C37.9977 10.8392 37.9617 10.8696 37.9326 10.9062C37.9035 10.9428 37.8819 10.9848 37.8689 11.0299C37.856 11.075 37.852 11.1223 37.8572 11.169V13.2493C37.854 13.4165 37.787 13.576 37.6704 13.6942C37.5537 13.8125 37.3965 13.8803 37.2316 13.8836C37.0656 13.8836 36.9065 13.8167 36.7892 13.6978C36.6718 13.5788 36.6059 13.4175 36.6059 13.2493V11.169C36.6009 10.9557 36.6374 10.7436 36.7133 10.5446C36.7893 10.3457 36.9031 10.164 37.0483 10.0096C37.1936 9.85533 37.3674 9.73149 37.5599 9.64529C37.7523 9.5591 37.9597 9.51226 38.17 9.50732H41.9238C42.1342 9.51226 42.3415 9.5591 42.534 9.64529C42.7264 9.73149 42.9002 9.85533 43.0455 10.0096C43.1908 10.164 43.3046 10.3457 43.3805 10.5446C43.4564 10.7436 43.4929 10.9557 43.4879 11.169V13.2493C43.4847 13.4165 43.4178 13.576 43.3011 13.6942C43.1845 13.8125 43.0272 13.8803 42.8623 13.8836Z" fill="white"/>
<path d="M40.0475 20.391C39.8816 20.391 39.7224 20.3242 39.6051 20.2052C39.4878 20.0863 39.4219 19.925 39.4219 19.7568V16.0273C39.4219 15.8591 39.4878 15.6978 39.6051 15.5789C39.7224 15.4599 39.8816 15.3931 40.0475 15.3931C40.2124 15.3963 40.3697 15.4642 40.4863 15.5824C40.603 15.7007 40.6699 15.8601 40.6732 16.0273V19.7568C40.6732 19.925 40.6072 20.0863 40.4899 20.2052C40.3726 20.3242 40.2134 20.391 40.0475 20.391Z" fill="white"/>
<path d="M41.9244 18.5263H38.1706C38.0046 18.5263 37.8455 18.4594 37.7282 18.3405C37.6108 18.2216 37.5449 18.0603 37.5449 17.8921C37.5449 17.7238 37.6108 17.5624 37.7282 17.4435C37.8455 17.3245 38.0046 17.2578 38.1706 17.2578H41.9244C42.0893 17.2611 42.2466 17.3289 42.3632 17.4472C42.4799 17.5654 42.5468 17.7249 42.55 17.8921C42.55 18.0603 42.4841 18.2216 42.3668 18.3405C42.2494 18.4594 42.0903 18.5263 41.9244 18.5263Z" fill="white"/>
</g>
<defs>
<clipPath id="clip0">
<rect width="49" height="48" fill="white" transform="translate(6 3)"/>
</clipPath>
</defs>
</svg>
