<?xml version="1.0" encoding="utf-8"?>
<!-- Generator: Adobe Illustrator 22.0.0, SVG Export Plug-In . SVG Version: 6.00 Build 0)  -->
<svg version="1.1" id="Capa_1" xmlns="http://www.w3.org/2000/svg" xmlns:xlink="http://www.w3.org/1999/xlink" x="0px" y="0px"
	 viewBox="0 0 330 128.5" style="enable-background:new 0 0 330 128.5;" xml:space="preserve">
<style type="text/css">
	.st0{fill:url(#SVGID_1_);}
	.st1{fill:#C1292B;}
	.st2{fill:#FFFFFF;}
	.st3{fill:#070308;}
	.st4{fill:#9C9D9F;}
</style>
<g>
	<linearGradient id="SVGID_1_" gradientUnits="userSpaceOnUse" x1="32.4808" y1="84.2987" x2="203.7496" y2="84.2987">
		<stop  offset="0" style="stop-color:#C23233"/>
		<stop  offset="1.234103e-02" style="stop-color:#C64C35"/>
		<stop  offset="3.811480e-02" style="stop-color:#CD6835"/>
		<stop  offset="6.525324e-02" style="stop-color:#D27934"/>
		<stop  offset="9.400234e-02" style="stop-color:#D58533"/>
		<stop  offset="0.1254" style="stop-color:#D78B32"/>
		<stop  offset="0.1647" style="stop-color:#D88D31"/>
		<stop  offset="0.2256" style="stop-color:#DFA22E"/>
		<stop  offset="0.3054" style="stop-color:#E9BC28"/>
		<stop  offset="0.3305" style="stop-color:#E8BD28"/>
		<stop  offset="0.3586" style="stop-color:#E2BE28"/>
		<stop  offset="0.3882" style="stop-color:#D6BE29"/>
		<stop  offset="0.4188" style="stop-color:#C4BD2C"/>
		<stop  offset="0.4499" style="stop-color:#ABB830"/>
		<stop  offset="0.476" style="stop-color:#90B235"/>
		<stop  offset="0.504" style="stop-color:#7EAC65"/>
		<stop  offset="0.5476" style="stop-color:#63A290"/>
		<stop  offset="0.5839" style="stop-color:#479BAE"/>
		<stop  offset="0.6109" style="stop-color:#2D96C0"/>
		<stop  offset="0.6257" style="stop-color:#1E94C5"/>
		<stop  offset="0.7293" style="stop-color:#1977AF"/>
		<stop  offset="0.8054" style="stop-color:#1665A1"/>
		<stop  offset="0.8084" style="stop-color:#1C64A1"/>
		<stop  offset="0.8684" style="stop-color:#475693"/>
		<stop  offset="0.9219" style="stop-color:#554687"/>
		<stop  offset="0.9666" style="stop-color:#5B357E"/>
		<stop  offset="0.997" style="stop-color:#5D2D7B"/>
		<stop  offset="1" style="stop-color:#5D2D7B"/>
	</linearGradient>
	<path class="st0" d="M175.8,45.6c0,0-39.1,39.4-42.5,42.9c0.2-3.8,1-18.5,1-18.5c0.2-2.6-1.2-5.1-3.6-6.2c-2.4-1.1-5.2-0.6-7.1,1.3
		c0,0-24.9,24.8-25.5,25.5c0.2-3.5,0.6-9.9,0.6-9.9c0.2-2.6-1.2-4.9-3.6-6c-2.4-1.1-5.2-0.5-7.4,1.5c0,0-3.6,3.7-6,6.1
		c0.1-0.9,1.4-25.2,1.4-25.2c0.2-2.6-1.2-5.1-3.6-6.2c-2.4-1.1-5.3-0.6-7.1,1.3L10.8,114c0,0-4.2,4.4,0,8.9c4.5,4.1,8.9,0,8.9,0
		s46.5-46.8,50-50.2c-0.2,3.5-1.3,22.9-1.3,22.9c-0.1,2.3,1,5,3.4,6.1c4.2,2,7-0.9,8.2-2.1c0,0,2.1-2.1,4.5-4.5
		c-0.4,4.3-0.5,9.7-0.6,10.7c0,0.1,0,0.1,0,0.1c-0.2,2.6,1.2,5.1,3.6,6.2c2.4,1.1,5.2,0.6,7.1-1.3c0,0,26.5-26.8,26.5-26.5
		l-1.1,19.6c-0.2,2.7,1.3,5.2,3.7,6.3c2.5,1.1,5.4,0.4,7.3-1.5l53.4-53.9c2.5-2.5,2.7-6.5-0.2-9.3c-1-1-2.6-1.6-4.2-1.6
		C178.6,43.9,177,44.4,175.8,45.6"/>
	<g>
		<rect x="246.5" y="39.1" class="st1" width="56" height="0.7"/>
		<rect x="246.5" y="4" class="st1" width="56" height="0.7"/>
		<polygon class="st2" points="213.3,36.2 212,37.3 212.4,37.5 213.5,37 214.3,37 215,36.4 		"/>
		<polygon class="st3" points="248.8,11 259.1,11 258.6,14 252.4,14 252.4,19.9 256.8,19.9 256.8,22.9 252.4,22.9 252.4,31.3 
			248.8,31.3 		"/>
		<polygon class="st3" points="288.2,11 291.8,11 291.8,21.2 292.6,21.2 295.6,15.1 299.3,15.1 295.3,22.6 300.1,31.3 296.2,31.3 
			292.4,23.9 291.8,23.9 291.7,31.3 288.2,31.3 		"/>
		<path class="st3" d="M265.1,26.4c0,1.3-1.2,2.4-2.3,2.4c-1,0-1.7-0.8-1.7-2.1c0-0.2,0.1-1,0.5-1.5c0.8-1,3.2-1.5,3.4-1.5V26.4z
			 M263.6,14.9c-1.3,0-2.6,0.5-3.5,1.4c-0.9,0.9-1.4,2.1-1.5,3.5h3.1c0.2-1.1,0.7-1.9,1.9-1.9c1.2,0,1.6,0.7,1.6,1.8v1.5
			c-0.7,0.2-3.2,0.4-5,1.5c-0.9,0.6-2.1,1.8-2.1,4.4c0,3,1.8,4.2,3.6,4.3c1.8,0.2,2.7-0.4,3.4-1.4l0.3,1.3h3.1V19.7
			C268.5,16.3,266.3,14.9,263.6,14.9"/>
		<path class="st1" d="M233.1,40c2,0,3.6-1.6,3.6-3.6v-29c0-2-1.6-3.6-3.6-3.6h-29c-2,0-3.6,1.6-3.6,3.6v29c0,2,1.6,3.6,3.6,3.6
			H233.1z"/>
		<path class="st2" d="M222.5,26.5c-1.5,0.1-2.6-0.9-2.6-0.9l0.6-0.4c0,0,0.7,0.5,1.4,0.6c0.7,0,1-0.1,1-0.1l-2-0.8l0.6-0.4l3.1,1.2
			C224.6,25.7,224,26.4,222.5,26.5"/>
		<path class="st2" d="M222.1,27l0-0.1c0,0,0.4,0.1,0.8,0c0.4-0.1,0.6-0.1,0.6-0.1l0.9,0.9l8,3.7c0,0,0,0.2-0.3,0.4
			c-0.2,0.2-0.5,0.3-0.5,0.3L222.1,27z"/>
		<path class="st2" d="M217,30.7c0,0-0.2-0.1-0.5-0.2c-0.3-0.1-0.5-0.3-0.5-0.3l1.3,3.4l-0.9,2.4l0.8,0.1l0.9-2.7L217,30.7z"/>
		<path class="st2" d="M209.4,28.3l0.2,0.1c0.4,0.1,0.8,0.1,1.4-0.3c0.2-0.1,0.8-0.3,1.3-0.3c0,0,0.8,0,0.9,0
			c1.2,1.6,3.5,2.6,4.2,2.9l1.2,2.7l-1.2,3l-1.8-0.2l-1.3,1.1l0.4,0.2l1.1-0.5l2,0.3l2.5-0.2l0.8,0.3l0.4-0.2l-1-0.9l-2.1,0l1.2-3.2
			c0,0-1.6-3.4-1.6-3.5c-0.6-1.5-1.6-1.7-2.1-1.8l-0.3,0.5c0.3,0.1,0.8,0.4,1.3,1c-0.8-0.4-1.9-1-2.6-1.7c-0.5-0.5-0.8-1.1-1-1.4
			c0,0-0.1,0.5-0.1,0.6c-0.7,0-1.3,0-1.9,0.2c-0.3,0.1-0.5,0.2-0.7,0.4c-0.2,0.1-0.3,0.2-0.5,0.3c0-0.1,0.1-0.2,0.1-0.3
			c0-0.1,0-0.2-0.1-0.3c-0.1-0.1-0.2-0.2-0.4-0.3c-0.5-0.1-0.8,0.2-1.1,0.5c0,0,0-0.1,0-0.1c0,0,0,0,0,0c0-0.2,0.2-0.6,0.5-0.8
			c0,0,0,0,0,0c0.2,0,0.4,0,0.6-0.2c0,0,0.1,0.2,0.5,0.2c0.7,0,0.6-0.7,0.6-0.7h-0.4c0,0,0,0.3-0.2,0.3c-0.1,0-0.2-0.2-0.1-0.3
			c0.7-0.7,1.2-0.7,1.3-0.6c0,0,0.2-0.6,0.2-0.6c-0.3-0.1-0.9-0.1-1.7,0.8c-0.3,0.4-0.6,0.7-0.8,0.6c-0.8-0.4,1.1-2.1,2.9-2.5
			c0,0.1-0.1,0.5-0.1,0.5s0.9-0.5,2.1-0.5c0.8,0,1.6,0.2,1.6,0.2s0-0.2,0.1-0.3c0.1-0.2,0.2-0.3,0.2-0.3s-1.5-0.5-3.5,0
			c0-0.1,0.2-0.5,0.2-0.5l-0.2,0.1c-2.2,0.9-3.6,1.7-3.9,2.6c-0.1,0.2-0.2,0.6,0,0.9c-0.5,0.5-0.6,0.9-0.6,1.2c0,0,0,0.1,0,0.1
			c0,0.3,0.2,0.6,0.6,0.8c0.1,0.1,0.2,0.1,0.2,0.1l0.1-0.1l-0.1-0.1c0,0,0.1-0.3,0.2-0.5c0.1-0.2,0.2-0.5,0.5-0.4
			c0.3,0.1,0.1,0.3,0.1,0.5C209.6,28.2,209.4,28.3,209.4,28.3"/>
		<path class="st2" d="M226.1,29.7l5,2.7c0,0-0.2,0.3-0.4,0.4c-0.2,0.1-0.5,0.2-0.5,0.2l-4.6-3.1L226.1,29.7z"/>
		<path class="st2" d="M224.6,30.1l0.5-0.1l4.1,3.2c0,0-0.1,0.2-0.4,0.3c-0.2,0.1-0.6,0.2-0.6,0.2L224.6,30.1z"/>
		<path class="st2" d="M223.4,29.9L224,30l3.2,3.5c0,0-0.2,0.2-0.5,0.3c-0.3,0.1-0.5,0.1-0.5,0.1L223.4,29.9z"/>
		<path class="st2" d="M225.1,33.3c0,0-0.2,0.1-0.5,0.2c-0.3,0.1-0.6,0-0.6,0l-1.6-3.1l-2.1-0.7l-0.2-0.6l2.6,0.7L225.1,33.3z"/>
		<path class="st2" d="M220.3,31.2l-0.1,0.6l1.6,2c0,0,0.2-0.1,0.3-0.3c0.1-0.2,0.1-0.5,0.1-0.5L220.3,31.2z"/>
		<path class="st2" d="M220.3,30.1l0,0.6l1.9,1.8c0,0,0.1-0.1,0.2-0.3c0.1-0.3,0-0.6,0-0.6L220.3,30.1z"/>
		<path class="st2" d="M220,32.1l-0.2,0.5l1,2.1c0,0,0.2,0,0.4-0.2c0.1-0.2,0.2-0.4,0.2-0.4L220,32.1z"/>
		<path class="st2" d="M210.8,8.5c-0.1-0.2-0.3-0.5-0.7-0.7c-0.4-0.3-1-0.2-1-0.2l1.7,6.7l0.8,0.4L210.8,8.5z"/>
		<path class="st2" d="M213.5,10.2c-0.1-0.3-0.2-0.5-0.6-0.8C212.5,9,212,9,212,9l0.6,6.3l0.7,0.5L213.5,10.2z"/>
		<path class="st2" d="M215.7,12.3c0-0.3-0.1-0.5-0.4-0.8c-0.3-0.4-0.8-0.5-0.8-0.5l-0.5,5.5l0.6,0.5L215.7,12.3z"/>
		<path class="st2" d="M217.2,14.3c0-0.3,0-0.5-0.2-0.8c-0.3-0.4-0.6-0.5-0.6-0.5l-1.3,4.5l0.5,0.6L217.2,14.3z"/>
		<path class="st2" d="M218.4,16.5c0-0.3,0-0.4-0.1-0.7c-0.2-0.4-0.5-0.5-0.5-0.5l-1.6,3.7l0.4,0.6L218.4,16.5z"/>
		<path class="st2" d="M219.1,18.6c0.1-0.3,0.1-0.5,0-0.7c-0.1-0.3-0.4-0.5-0.4-0.5l-1.8,3.1l0.3,0.7L219.1,18.6z"/>
		<path class="st2" d="M207.8,7.3c-0.2-0.2-0.3-0.4-0.8-0.6c-0.5-0.2-1,0-1,0l3.1,6.9l0.9,0.3L207.8,7.3z"/>
		<path class="st2" d="M232.3,13.6c0.2-0.2,0.4-0.4,0.5-0.9c0.1-0.5-0.1-1-0.1-1l-5.9,3.6l-0.1,0.8L232.3,13.6z"/>
		<path class="st2" d="M231.5,16.8c0.2-0.2,0.4-0.3,0.6-0.8c0.2-0.5,0.1-1,0.1-1l-5.8,2.4l-0.3,0.8L231.5,16.8z"/>
		<path class="st2" d="M230.3,19.6c0.2-0.1,0.5-0.3,0.7-0.6c0.3-0.4,0.2-1,0.2-1l-5.4,1.1l-0.3,0.7L230.3,19.6z"/>
		<path class="st2" d="M228.7,22c0.3-0.1,0.4-0.2,0.7-0.4c0.3-0.4,0.3-0.7,0.3-0.7L225,21l-0.4,0.6L228.7,22z"/>
		<path class="st2" d="M227.1,23.7c0.3,0,0.4-0.1,0.7-0.4c0.3-0.4,0.3-0.6,0.3-0.6l-4.1-0.4l-0.5,0.5L227.1,23.7z"/>
		<path class="st2" d="M225.2,25.1c0.3,0,0.5-0.1,0.6-0.2c0.3-0.2,0.3-0.5,0.3-0.5l-3.5-0.8l-0.5,0.5L225.2,25.1z"/>
		<path class="st2" d="M232.5,10.2c0.1-0.2,0.3-0.4,0.3-1c0-0.5-0.3-0.9-0.3-0.9l-5.6,5l0,0.9L232.5,10.2z"/>
		<path class="st2" d="M217.5,25c-0.2-0.2-0.6-0.6-0.1-1.1l0.2-0.2c2.1-2.1,3.8-3.9,4.4-7.7c0.1-0.1,9.9-8.7,9.9-8.7s0.1-0.3,0-0.5
			c-0.1-0.3-0.3-0.3-0.3-0.3l-10.5,9.1c0,0,0,1.5-1.3,4c-0.8,1.5-3.2,3.7-3.2,3.7c-0.3,0.3-0.6,0.8-0.5,1.5c-0.5-0.1-1.1,0-1.1,0
			l0.1,0.6c0,0,0.8-0.1,1.5,0.1c0.7,0.2,1.2,0.7,1.2,0.7l0.5-0.4C218.5,25.7,217.8,25.2,217.5,25"/>
		<path class="st2" d="M212.2,19.5c-1.2-1-2.2-1.6-2.2-1.6l-5.3-11.3c0,0-0.1,0-0.4-0.1c-0.3,0-0.5,0.1-0.5,0.1l5.4,12
			c0,0,1.3,0.8,2.5,1.8c1.2,1.1,2.2,2.3,2.2,2.3s0.3-0.1,0.7-0.1c0.4,0,0.6,0.1,0.6,0.1S213.9,20.8,212.2,19.5"/>
		<path class="st3" d="M279.7,25.8c0,1.6,0.2,3.1,1.8,3.1c1.4,0,1.9-1.1,1.9-2.5v-0.7h3.3l0,0.7c0,3.1-1.8,5.1-5.2,5.1
			c-4.5,0-5.3-2.8-5.5-7.3l0-0.5c0-5.4,0.4-8.8,5.4-8.8c3.4,0,5.2,2,5.2,5.1l0,0.7h-3.3V20c0-1.3-0.5-2.5-1.9-2.5
			c-1.5,0-1.8,1.6-1.8,3.1L279.7,25.8z"/>
		<path class="st3" d="M270.3,11l3.5,0v17.4l1.9,1.1v1.9c0,0-2.4,0.2-3.7-0.3c-0.8-0.3-1.7-1.1-1.7-3.5V11z"/>
	</g>
	<path class="st4" d="M295.9,57.7c-3.6,0-6.6,2.9-6.6,6.6c0,3.6,2.9,6.5,6.6,6.5c3.6,0,6.5-2.9,6.5-6.5
		C302.5,60.6,299.5,57.7,295.9,57.7 M295.6,74h-3.2c-1.8,0-4.2,0.7-4.7,4c-1.4,7.8-3.2,18.2-4.9,28.4c-0.7,4.3-0.1,5.3,2,5.3h5.5
		c3,0,3.5-1.4,3.8-3.2c1.9-11.3,3.7-20.2,5.2-29.5C300,75.3,298.4,74,295.6,74 M267.3,74.2c-3.3,0-6.2,1.1-8.6,3.2
		c-2,1.8-4,4.7-6,8.7c0-0.5,0.2-1.1,0.3-2v-1.8c0-2.8-0.7-4.8-2-6.1c-1.4-1.3-3.6-2-6.8-2c-3.1,0-5.8,1.1-8.1,3.2
		c-1.8,1.7-3.7,4.4-5.7,8.2c0.7-3.4,1-5.2,1.4-7.8c0.2-1.4,0.1-3.8-3.1-3.8c-0.8,0-1.7,0-3.1,0c-1.1,0-3.7,0-4.4,3.4
		c-0.7,3.6-1.7,9.5-1.8,10.1l-3,18c-0.7,4-0.3,6.3,3,6.2h6.3c2.1,0,3-1.1,3.7-4.8l1.5-9.2c1-6.9,2.5-11.7,4.6-14.3
		c1.3-1.7,2.9-2.5,4.8-2.5c1,0,1.7,0.4,2.2,1.3c0.4,0.8,0.7,1.9,0.7,3.3c0,0.8-0.1,1.6-0.2,2.5l-3.3,17.8c-0.7,4.4-0.1,6,2.2,6h6
		c2.5,0,3.3-1.6,3.8-4.4l2.1-12.9c0.7-4,1.8-7.1,3.5-9.6c1.6-2.5,3.4-3.7,5.3-3.7c1.3,0,2.2,0.5,2.8,1.4c0.4,0.7,0.6,1.7,0.6,3v1.7
		c0,0-3,17.5-3.1,18.5c-0.6,4.2-0.3,6,2.3,6h5.5c2.5,0,3.1-1.4,3.5-3.6c0.7-3.3,1.7-9.3,1.7-9.3h0l1.9-10.6c0.2-1,0.3-2.1,0.3-3.2
		c0-3.5-1.1-6.3-3.3-8.2C272.8,75.1,270.3,74.2,267.3,74.2 M190,82.3c1.7-2.1,3.8-3.1,6-3.1c1.1,0,2,0.3,2.8,0.9
		c0.8,0.6,1.1,1.4,1.1,2.2c0,1.9-1,3.6-2.8,5.1c-2.5,2-6.3,3.3-11.4,4C186.9,87.4,188.3,84.3,190,82.3 M206.8,91.4
		c3-1.8,4.6-4.5,4.6-8.1c0-2.8-1.3-5.1-3.8-6.6c-2.5-1.6-6-2.4-10.4-2.4c-6.9,0-12.7,2.2-17.6,6.7c-4.8,4.5-7.2,9.9-7.2,16.2
		c0,4.8,1.6,8.6,4.6,11.4c3.1,2.8,7.2,4.3,12.4,4.3c4.4,0,9-1,13.6-3.2c4.6-2.1,6.9-4.3,6.9-6.5c0-0.4-0.1-0.9-0.5-1.4
		c-0.3-0.5-0.8-0.7-1.5-0.7c-0.4,0-0.9,0.1-1.5,0.3c-0.3,0.2-1.8,1.2-4.5,3c-3,1.6-5.9,2.4-8.7,2.4c-2.6,0-4.7-0.9-6.1-2.7
		c-1.2-1.5-1.8-3.4-1.8-5.7c0-0.5,0.1-1.1,0.2-1.8C196,95.3,203.1,93.6,206.8,91.4"/>
</g>
</svg>
