<svg width="57" height="52" viewBox="0 0 57 52" fill="none" xmlns="http://www.w3.org/2000/svg">
<g clip-path="url(#clip0)">
<path d="M36.7869 38.837H13.8083C13.5201 38.837 13.2438 38.7227 13.04 38.5194C12.8362 38.3161 12.7217 38.0405 12.7217 37.753C12.7217 37.4655 12.8362 37.1898 13.04 36.9865C13.2438 36.7832 13.5201 36.6689 13.8083 36.6689H36.7869C37.0751 36.6689 37.3515 36.7832 37.5553 36.9865C37.7591 37.1898 37.8735 37.4655 37.8735 37.753C37.8735 38.0405 37.7591 38.3161 37.5553 38.5194C37.3515 38.7227 37.0751 38.837 36.7869 38.837Z" fill="#076BAE"/>
<path d="M38.3078 31.104C38.0208 31.1002 37.7466 30.9846 37.5436 30.7821C37.3406 30.5797 37.2249 30.3063 37.2212 30.02V13.095C37.229 12.2399 36.8989 11.4161 36.3023 10.802C35.7058 10.188 34.8907 9.83299 34.0338 9.81402H26.0651C25.777 9.81402 25.5006 9.69973 25.2968 9.49644C25.093 9.29315 24.9785 9.0175 24.9785 8.73001C24.9785 8.44251 25.093 8.16687 25.2968 7.96358C25.5006 7.76029 25.777 7.646 26.0651 7.646H34.0482C35.4779 7.67255 36.8398 8.25894 37.84 9.27836C38.8402 10.2978 39.3985 11.6685 39.3944 13.095V30.02C39.3944 30.3074 39.2799 30.5831 39.0762 30.7864C38.8724 30.9897 38.596 31.104 38.3078 31.104Z" fill="#076BAE"/>
<path d="M18.0392 48.015C16.6046 47.9922 15.2376 47.4025 14.2381 46.3756C13.2386 45.3487 12.6882 43.9683 12.7075 42.5371V23.9932C12.7075 23.7057 12.822 23.4301 13.0258 23.2268C13.2296 23.0235 13.506 22.9092 13.7942 22.9092C14.0823 22.9092 14.3587 23.0235 14.5625 23.2268C14.7663 23.4301 14.8808 23.7057 14.8808 23.9932V42.5512C14.8691 43.405 15.196 44.229 15.7902 44.8435C16.3845 45.4579 17.198 45.8132 18.0537 45.8322H33.991C34.7439 45.8023 35.4636 45.5147 36.0284 45.0171C36.5932 44.5194 36.9687 43.8427 37.0914 43.101C37.1125 42.9597 37.1617 42.8235 37.2362 42.7015C37.3106 42.5796 37.4088 42.4738 37.5249 42.3903C37.6411 42.3068 37.7728 42.2472 37.9123 42.2153C38.0519 42.1834 38.1965 42.18 38.3375 42.2047C38.6218 42.2508 38.876 42.4078 39.0445 42.6409C39.2129 42.8739 39.2817 43.1639 39.2357 43.4475C39.0285 44.6912 38.3955 45.8249 37.4444 46.6551C36.4933 47.4853 35.2831 47.9604 34.0199 48.0002L18.0392 48.015Z" fill="#076BAE"/>
<path d="M6.08604 9.81402H3.02901C2.74082 9.81402 2.46442 9.69973 2.26064 9.49644C2.05686 9.29314 1.94238 9.0175 1.94238 8.73001C1.94238 8.44251 2.05686 8.16687 2.26064 7.96358C2.46442 7.76029 2.74082 7.646 3.02901 7.646H6.08604C6.37423 7.646 6.65062 7.76029 6.85441 7.96358C7.05819 8.16687 7.17267 8.44251 7.17267 8.73001C7.17267 9.0175 7.05819 9.29314 6.85441 9.49644C6.65062 9.69973 6.37423 9.81402 6.08604 9.81402Z" fill="#F09420"/>
<path d="M18.4015 9.81402H15.3444C15.0562 9.81402 14.7799 9.69973 14.5761 9.49644C14.3723 9.29314 14.2578 9.0175 14.2578 8.73001C14.2578 8.44251 14.3723 8.16687 14.5761 7.96358C14.7799 7.76029 15.0562 7.646 15.3444 7.646H18.4015C18.6897 7.646 18.9661 7.76029 19.1698 7.96358C19.3736 8.16687 19.4881 8.44251 19.4881 8.73001C19.4881 9.0175 19.3736 9.29314 19.1698 9.49644C18.9661 9.69973 18.6897 9.81402 18.4015 9.81402Z" fill="#F09420"/>
<path d="M10.737 17.4458C10.4488 17.4458 10.1724 17.3315 9.96865 17.1282C9.76487 16.9249 9.65039 16.6492 9.65039 16.3617V13.3115C9.65039 13.0241 9.76487 12.7484 9.96865 12.5451C10.1724 12.3418 10.4488 12.2275 10.737 12.2275C11.0252 12.2275 11.3016 12.3418 11.5054 12.5451C11.7092 12.7484 11.8236 13.0241 11.8236 13.3115V16.3617C11.8256 16.5046 11.7988 16.6464 11.7449 16.7788C11.691 16.9112 11.611 17.0314 11.5097 17.1324C11.4084 17.2335 11.2879 17.3129 11.1552 17.3667C11.0224 17.4205 10.8803 17.4477 10.737 17.4458Z" fill="#F09420"/>
<path d="M10.737 5.20352C10.45 5.19978 10.1758 5.08419 9.97281 4.8817C9.76983 4.67922 9.65414 4.40584 9.65039 4.11951V1.0552C9.65039 0.767705 9.76487 0.492064 9.96865 0.288773C10.1724 0.0854812 10.4488 -0.0288086 10.737 -0.0288086C11.0252 -0.0288086 11.3016 0.0854812 11.5054 0.288773C11.7092 0.492064 11.8236 0.767705 11.8236 1.0552V4.11951C11.8236 4.40701 11.7092 4.68265 11.5054 4.88594C11.3016 5.08923 11.0252 5.20352 10.737 5.20352Z" fill="#F09420"/>
<path d="M44.3502 48.0147C44.1558 48.0112 43.9659 47.9558 43.7997 47.8552L37.7435 44.2997C37.0184 43.8169 36.443 43.1415 36.0821 42.3498C35.7211 41.5581 35.589 40.6823 35.7007 39.8197V36.6686L33.8461 34.7173C33.4583 34.3203 33.1626 33.8433 32.9798 33.3199C32.7971 32.7965 32.7317 32.2396 32.7883 31.6882C32.845 31.1369 33.0223 30.6048 33.3077 30.1293C33.5931 29.6537 33.9797 29.2461 34.4402 28.9359C35.17 28.453 36.0447 28.2371 36.916 28.324C37.7874 28.4109 38.6018 28.7955 39.2213 29.4129L42.4088 32.593C42.5113 32.6926 42.5928 32.8115 42.6484 32.943C42.704 33.0746 42.7327 33.2159 42.7327 33.3587C42.7327 33.5015 42.704 33.6428 42.6484 33.7744C42.5928 33.906 42.5113 34.0248 42.4088 34.1244C42.205 34.3274 41.9289 34.442 41.6409 34.442C41.3529 34.442 41.0768 34.3274 40.873 34.1244L37.6856 30.9451C37.422 30.6792 37.0737 30.5134 36.7007 30.4765C36.3277 30.4395 35.9535 30.5335 35.6427 30.7426C35.4412 30.8726 35.2723 31.0473 35.1492 31.2528C35.0261 31.4583 34.9521 31.6896 34.9328 31.9282C34.9091 32.1657 34.9384 32.4048 35.0186 32.6297C35.0987 32.8546 35.2278 33.0595 35.3964 33.2289L37.5697 35.4978C37.761 35.702 37.8694 35.9699 37.8739 36.2494V39.9785C37.7941 40.451 37.8496 40.9363 38.0342 41.3787C38.2187 41.8211 38.5248 42.2025 38.9171 42.4789L44.9008 46.0055C45.1401 46.1498 45.3135 46.3819 45.3838 46.652C45.4542 46.922 45.416 47.2085 45.2775 47.4509C45.1849 47.6167 45.0508 47.7557 44.8883 47.8545C44.7258 47.9533 44.5404 48.0087 44.3502 48.0147Z" fill="#076BAE"/>
<path d="M48.9141 40.4557C48.6272 40.4495 48.3532 40.3357 48.1462 40.1374C47.5964 39.5893 47.161 38.9383 46.8651 38.2214C46.5691 37.5044 46.4186 36.7355 46.4221 35.9602V31.5232C46.4456 29.8445 45.9387 28.201 44.9732 26.8258L37.4972 16.3619C37.3455 16.1276 37.2901 15.844 37.3426 15.57C37.395 15.2961 37.5513 15.0524 37.779 14.8904C38.0066 14.7285 38.2881 14.6608 38.5648 14.7006C38.8415 14.7403 39.0922 14.8848 39.2648 15.1043L46.7553 25.5682C47.9991 27.3059 48.6678 29.388 48.6678 31.5232V35.9602C48.664 36.4509 48.7582 36.938 48.9447 37.3921C49.1313 37.8462 49.4065 38.2583 49.7544 38.6053C49.9579 38.8085 50.0722 39.0844 50.0722 39.3717C50.0722 39.659 49.9579 39.9342 49.7544 40.1374C49.6441 40.2457 49.5124 40.3297 49.3678 40.3844C49.2231 40.4392 49.0686 40.4637 48.9141 40.4557Z" fill="#076BAE"/>
<path d="M26.1817 28.1415C24.9066 28.1415 23.66 27.7642 22.5998 27.0575C21.5395 26.3507 20.7131 25.3463 20.2252 24.171C19.7372 22.9958 19.6095 21.7023 19.8583 20.4546C20.107 19.207 20.7211 18.0611 21.6228 17.1616C22.5245 16.2621 23.6733 15.6497 24.9239 15.4015C26.1746 15.1534 27.4709 15.2803 28.649 15.7671C29.8271 16.2539 30.834 17.0786 31.5425 18.1363C32.2509 19.194 32.6291 20.4373 32.6291 21.7094C32.6291 23.4152 31.9498 25.051 30.7407 26.2572C29.5316 27.4634 27.8917 28.1415 26.1817 28.1415ZM26.1817 17.4461C25.3364 17.4461 24.5101 17.696 23.8072 18.1645C23.1043 18.633 22.5565 19.2986 22.233 20.0777C21.9095 20.8568 21.8249 21.7144 21.9898 22.5415C22.1547 23.3686 22.5617 24.128 23.1595 24.7243C23.7572 25.3206 24.5188 25.7271 25.3479 25.8916C26.177 26.0561 27.0363 25.9715 27.8173 25.6488C28.5983 25.3261 29.2659 24.7797 29.7355 24.0786C30.2051 23.3774 30.4558 22.5527 30.4558 21.7094C30.4372 20.5844 29.9809 19.5106 29.1833 18.715C28.3858 17.9193 27.3095 17.4646 26.1817 17.4461Z" fill="#076BAE"/>
<path d="M36.7868 38.8367H16.9812C16.693 38.8367 16.4166 38.7224 16.2128 38.5191C16.0091 38.3158 15.8945 38.0402 15.8945 37.7527C15.9022 35.0347 16.9889 32.4302 18.9168 30.5097C20.8447 28.5891 23.4568 27.5092 26.1813 27.5054C26.4695 27.5054 26.7459 27.6197 26.9497 27.823C27.1534 28.0262 27.2679 28.3019 27.2679 28.5894C27.2679 28.8769 27.1534 29.1525 26.9497 29.3558C26.7459 29.5591 26.4695 29.6734 26.1813 29.6734C24.2214 29.6732 22.3279 30.3814 20.852 31.6678C19.376 32.9542 18.4177 34.7311 18.1547 36.6686H36.7868C37.075 36.6686 37.3514 36.7829 37.5552 36.9862C37.7589 37.1895 37.8734 37.4652 37.8734 37.7527C37.8734 38.0402 37.7589 38.3158 37.5552 38.5191C37.3514 38.7224 37.075 38.8367 36.7868 38.8367Z" fill="#076BAE"/>
</g>
<defs>
<clipPath id="clip0">
<rect width="55.9202" height="51.0576" fill="white" transform="translate(0.424805 0.0864258)"/>
</clipPath>
</defs>
</svg>
