<svg width="18" height="24" viewBox="0 0 18 24" fill="none" xmlns="http://www.w3.org/2000/svg">
<path fill-rule="evenodd" clip-rule="evenodd" d="M9 11.25C7.75725 11.25 6.75 10.2427 6.75 9C6.75 7.75725 7.75725 6.75 9 6.75C10.2427 6.75 11.25 7.75725 11.25 9C11.25 10.2427 10.2427 11.25 9 11.25ZM9 5.25C6.92925 5.25 5.25 6.9285 5.25 9C5.25 11.0715 6.92925 12.75 9 12.75C11.0707 12.75 12.75 11.0715 12.75 9C12.75 6.9285 11.0707 5.25 9 5.25ZM9 21.75C7.75275 21.7567 1.5 12.1357 1.5 9C1.5 4.8585 4.85775 1.5 9 1.5C13.1422 1.5 16.5 4.8585 16.5 9C16.5 12.0937 10.2277 21.7567 9 21.75ZM9 0C4.02975 0 0 4.02975 0 9C0 12.7635 7.50375 24.0082 9 24C10.473 24.0082 18 12.7125 18 9C18 4.02975 13.9702 0 9 0Z" fill="#046AAF"/>
</svg>
