<svg width="17" height="21" viewBox="0 0 17 21" fill="none" xmlns="http://www.w3.org/2000/svg">
<g clip-path="url(#clip0)">
<path d="M0 20.3894C0 15.9114 3.6346 12.2769 8.12 12.2769C12.6054 12.2769 16.24 15.9114 16.24 20.3894H0Z" fill="#3FBFEB"/>
<path d="M8.12028 10.4707C10.8613 10.4707 13.0833 8.25205 13.0833 5.51516C13.0833 2.77826 10.8613 0.55957 8.12028 0.55957C5.37926 0.55957 3.15723 2.77826 3.15723 5.51516C3.15723 8.25205 5.37926 10.4707 8.12028 10.4707Z" fill="white"/>
<path d="M8.12045 11.0307C5.07545 11.0307 2.59766 8.55287 2.59766 5.51533C2.59766 2.47779 5.07545 0 8.12045 0C11.1655 0 13.6432 2.47779 13.6432 5.51533C13.6432 8.56033 11.1655 11.0307 8.12045 11.0307ZM8.12045 1.11949C5.6949 1.11949 3.71714 3.08978 3.71714 5.51533C3.71714 7.94088 5.6949 9.91118 8.12045 9.91118C10.546 9.91118 12.5238 7.94088 12.5238 5.51533C12.5238 3.08978 10.546 1.11949 8.12045 1.11949Z" fill="#046AAF"/>
<path d="M3.84375 3.0002C6.22452 5.46307 9.88897 6.20193 13.0385 4.84362C12.0235 1.85833 10.4935 0.477628 8.4411 0.708988C6.38871 0.932885 4.85875 1.7016 3.84375 3.0002Z" fill="#046AAF"/>
</g>
<defs>
<clipPath id="clip0">
<rect width="16.24" height="20.3896" fill="white"/>
</clipPath>
</defs>
</svg>
