<?xml version="1.0" encoding="utf-8"?>
<!-- Generator: Adobe Illustrator 22.0.0, SVG Export Plug-In . SVG Version: 6.00 Build 0)  -->
<svg version="1.1" id="Capa_1" xmlns="http://www.w3.org/2000/svg" xmlns:xlink="http://www.w3.org/1999/xlink" x="0px" y="0px"
	 viewBox="0 0 1920 1080" style="enable-background:new 0 0 1920 1080;" xml:space="preserve">
<style type="text/css">
	.st0{fill:url(#SVGID_1_);}
</style>
<linearGradient id="SVGID_1_" gradientUnits="userSpaceOnUse" x1="257.9781" y1="538.8677" x2="2106.2224" y2="538.8677">
	<stop  offset="0" style="stop-color:#C23233"/>
	<stop  offset="1.234103e-02" style="stop-color:#C64C35"/>
	<stop  offset="3.811480e-02" style="stop-color:#CD6835"/>
	<stop  offset="6.525324e-02" style="stop-color:#D27934"/>
	<stop  offset="9.400234e-02" style="stop-color:#D58533"/>
	<stop  offset="0.1254" style="stop-color:#D78B32"/>
	<stop  offset="0.1647" style="stop-color:#D88D31"/>
	<stop  offset="0.2256" style="stop-color:#DFA22E"/>
	<stop  offset="0.3054" style="stop-color:#E9BC28"/>
	<stop  offset="0.3305" style="stop-color:#E8BD28"/>
	<stop  offset="0.3586" style="stop-color:#E2BE28"/>
	<stop  offset="0.3882" style="stop-color:#D6BE29"/>
	<stop  offset="0.4188" style="stop-color:#C4BD2C"/>
	<stop  offset="0.4499" style="stop-color:#ABB830"/>
	<stop  offset="0.476" style="stop-color:#90B235"/>
	<stop  offset="0.504" style="stop-color:#7EAC65"/>
	<stop  offset="0.5476" style="stop-color:#63A290"/>
	<stop  offset="0.5839" style="stop-color:#479BAE"/>
	<stop  offset="0.6109" style="stop-color:#2D96C0"/>
	<stop  offset="0.6257" style="stop-color:#1E94C5"/>
	<stop  offset="0.7293" style="stop-color:#1977AF"/>
	<stop  offset="0.8054" style="stop-color:#1665A1"/>
	<stop  offset="0.8084" style="stop-color:#1C64A1"/>
	<stop  offset="0.8684" style="stop-color:#475693"/>
	<stop  offset="0.9219" style="stop-color:#554687"/>
	<stop  offset="0.9666" style="stop-color:#5B357E"/>
	<stop  offset="0.997" style="stop-color:#5D2D7B"/>
	<stop  offset="1" style="stop-color:#5D2D7B"/>
</linearGradient>
<path class="st0" d="M1805,121.3c0,0-421.9,425.1-458.7,462.6c2.3-41.5,10.9-199.2,10.9-199.2c2.3-28.4-13.4-55.3-39-67.3
	c-25.8-11.9-56.5-6.5-76.6,13.8c0,0-268.5,267.9-275.4,274.9c2.2-38.1,6.2-106.4,6.2-106.4c2.4-28.1-13.5-53-39-64.8
	c-25.5-12-56.4-5.4-79.6,16.7c0,0-39,40.1-64.9,66.1c0.7-9.2,15.4-271.8,15.4-271.8c2.4-28.2-13.2-55.1-38.8-67.2
	c-25.8-11.8-56.7-6.4-76.7,13.7L24.3,859.1c0,0-45.3,47.4,0.2,95.9c48.7,44.6,95.8,0,95.8,0s502.1-504.6,539.1-541.7
	c-2.2,37.5-13.8,246.7-13.8,246.7c-1,25.2,11.2,53.6,37.1,66c45.7,21.6,75.3-9.2,88.9-23c0,0,22.5-22.3,48.9-48.8
	c-3.9,46.9-5.6,104.6-6.4,115.1c0,0.9,0,1.3,0,1.3c-2.3,28.1,13.3,55,39.1,67c25.7,12,56.4,6.6,76.4-13.6
	c0,0,285.9-289.6,285.7-286.5l-11.4,211.6c-2.3,29,13.8,56.4,39.8,67.9c27.4,12.4,58.1,4.7,78.7-15.8l576-581.2
	c27.4-27.2,28.6-70.5-2.2-100c-11.3-10.7-27.9-16.8-44.8-16.8C1834.5,103,1817.6,108.8,1805,121.3"/>
</svg>
