<?xml version="1.0" encoding="utf-8"?>
<!-- Generator: Adobe Illustrator 24.0.1, SVG Export Plug-In . SVG Version: 6.00 Build 0)  -->
<svg version="1.1" id="Layer_1" xmlns="http://www.w3.org/2000/svg" xmlns:xlink="http://www.w3.org/1999/xlink" x="0px" y="0px"
	 viewBox="0 0 256 256" style="enable-background:new 0 0 256 256;" xml:space="preserve">
<style type="text/css">
	.st0{fill:#3A4B55;}
</style>
<g id="Group_2" transform="translate(298 -199.938)">
	<path id="Path_676" class="st0" d="M-160.8,376.8h-109.1V248h176.5v67.1c0,2.4,2,4.4,4.4,4.4c2.4,0,4.4-2,4.4-4.4v-71.5
		c-0.1-2.4-2-4.4-4.4-4.4h-185.3c-2.4,0.1-4.4,2-4.4,4.4v137.7c0.1,2.4,2,4.4,4.4,4.4h113.5c2.4,0,4.4-2,4.4-4.4
		C-156.4,378.8-158.4,376.8-160.8,376.8L-160.8,376.8L-160.8,376.8z"/>
	<path id="Path_677" class="st0" d="M-102.3,319.5c2.4-0.1,4.4-2,4.4-4.4v-58.5c-0.1-2.4-2-4.4-4.4-4.4h-159c-2.4,0.1-4.4,2-4.4,4.4
		V368c0.1,2.4,2,4.4,4.4,4.4h98.4c2.4,0,4.4-2,4.4-4.4c0-2.4-2-4.4-4.4-4.4l0,0H-188l38.1-43.5l5.6,6.5c1.5,1.9,4.3,2.1,6.2,0.6
		c1.9-1.5,2.1-4.3,0.6-6.2c-0.1-0.1-0.2-0.2-0.3-0.3l-9.1-10.3c-1.9-1.8-4.9-1.8-6.8,0l-20.7,23.4l-41.1-47.3
		c-1.6-1.9-4.5-2.1-6.3-0.5c-0.2,0.1-0.3,0.3-0.5,0.5l-34.6,39.3V261h150.2v54.1c0,2.4,1.9,4.4,4.3,4.4
		C-102.4,319.5-102.4,319.5-102.3,319.5z M-219.1,296.1l39.3,44.6l-20.1,22.8h-57V339L-219.1,296.1z"/>
	<path id="Path_678" class="st0" d="M-145.5,289.1c0,7.5,6.1,13.6,13.6,13.6c7.5,0,13.6-6.1,13.6-13.6c0-7.5-6.1-13.6-13.6-13.6
		C-139.4,275.4-145.4,281.5-145.5,289.1C-145.5,289-145.5,289-145.5,289.1z M-126.8,289.1c0,2.6-2.1,4.7-4.7,4.7
		c-2.6,0-4.7-2.1-4.7-4.7c0-2.6,2.1-4.7,4.7-4.7c2.6,0,4.7,2,4.7,4.6C-126.8,289-126.8,289-126.8,289.1z"/>
	<path id="Path_679" class="st0" d="M-109.4,319.8c-26.6,0-48.2,21.6-48.2,48.2s21.6,48.2,48.2,48.2c26.6,0,48.2-21.6,48.2-48.2
		C-61.2,341.4-82.8,319.8-109.4,319.8z M-109.4,407.3c-21.7,0-39.3-17.6-39.3-39.3s17.6-39.3,39.3-39.3s39.3,17.6,39.3,39.3
		C-70.2,389.7-87.7,407.2-109.4,407.3z"/>
	<path id="Path_680" class="st0" d="M-89,350.2c-1.9-1.5-4.6-1.2-6.1,0.7c0,0.1-0.1,0.1-0.1,0.2l-19.8,26l-8.9-13.3
		c-1.3-2.1-4-2.8-6.1-1.6c-2.1,1.3-2.8,4-1.6,6.1c0.1,0.2,0.2,0.3,0.3,0.5l12.1,18.6c0.8,1.2,2.1,2,3.5,2.1h0.3
		c1.4,0,2.7-0.6,3.5-1.8l23.6-31C-86.6,354.7-87,351.8-89,350.2z"/>
</g>
</svg>
