<?xml version="1.0" encoding="utf-8"?>
<!-- Generator: Adobe Illustrator 24.0.1, SVG Export Plug-In . SVG Version: 6.00 Build 0)  -->
<svg version="1.1" id="Layer_1" xmlns="http://www.w3.org/2000/svg" xmlns:xlink="http://www.w3.org/1999/xlink" x="0px" y="0px"
	 viewBox="0 0 256 256" style="enable-background:new 0 0 256 256;" xml:space="preserve">
<style type="text/css">
	.st0{fill:#3A4B55;}
</style>
<g id="Group_3" transform="translate(251.982 -199.938)">
	<path id="Path_681" class="st0" d="M-114.7,377.2h-109.2V248.2h176.7v67.2c0,2.5,2,4.4,4.4,4.4c2.5,0,4.4-2,4.4-4.4v-71.6
		c-0.1-2.4-2-4.4-4.4-4.4h-185.6c-2.4,0.1-4.4,2-4.4,4.4v137.9c0.1,2.4,2,4.4,4.4,4.4h113.7c2.5,0,4.4-2,4.4-4.4
		C-110.2,379.2-112.2,377.2-114.7,377.2L-114.7,377.2L-114.7,377.2z"/>
	<path id="Path_682" class="st0" d="M-56,319.8c2.4-0.1,4.4-2,4.4-4.4v-58.6c-0.1-2.4-2-4.4-4.4-4.4h-159.2c-2.4,0.1-4.4,2-4.4,4.4
		v111.6c0.1,2.4,2,4.4,4.4,4.4h98.6c2.5,0,4.4-2,4.4-4.4s-2-4.4-4.4-4.4h-25.2l38.2-43.5l5.6,6.5c1.7,1.7,4.5,1.7,6.2,0
		c1.6-1.6,1.7-4.2,0.3-5.9l-9.2-10.3c-1.6-1.8-4.3-2-6.1-0.4c-0.1,0.1-0.3,0.3-0.4,0.4L-128,334l-41.7-47.4c-1.9-1.8-4.9-1.8-6.8,0
		l-34.6,39.4v-64.8h150.7v54.2c0,2.4,1.9,4.4,4.3,4.4C-56.2,319.8-56.1,319.8-56,319.8z M-173,296.4l39.4,44.7l-20.1,22.8h-57.1
		v-24.6L-173,296.4z"/>
	<path id="Path_683" class="st0" d="M-99.3,289.3c0,7.5,6.1,13.6,13.6,13.6c7.5,0,13.6-6.1,13.6-13.6s-6.1-13.6-13.6-13.6l0,0
		C-93.1,275.7-99.2,281.7-99.3,289.3C-99.3,289.3-99.3,289.3-99.3,289.3z M-80.9,289.3c0,2.6-2.1,4.7-4.7,4.7
		c-2.6,0-4.7-2.1-4.7-4.7s2.1-4.7,4.7-4.7c2.6,0,4.7,2,4.7,4.6C-80.9,289.2-80.9,289.3-80.9,289.3z"/>
	<path id="Path_684" class="st0" d="M-63.5,320.1c-26.6,0-48.2,21.6-48.2,48.2c0,26.6,21.6,48.2,48.2,48.2
		c26.6,0,48.2-21.6,48.2-48.2C-15.2,341.7-36.8,320.1-63.5,320.1z M-63.5,407.7c-21.7,0-39.4-17.6-39.4-39.4
		c0-21.7,17.6-39.4,39.4-39.4c21.7,0,39.4,17.6,39.4,39.4C-24.2,390-41.7,407.6-63.5,407.7z"/>
	<path id="Path_685" class="st0" d="M-45.1,350.3c-1.6-1.7-4.3-1.8-6.1-0.2c-0.1,0-0.1,0.1-0.2,0.2l-11.8,11.8L-75,350.3
		c-1.8-1.7-4.5-1.6-6.2,0.1c-1.6,1.7-1.6,4.4,0,6.1l11.8,11.8l-11.8,11.8c-1.7,1.6-1.8,4.3-0.2,6.1c0,0.1,0.1,0.1,0.2,0.2
		c1.9,1.6,4.6,1.6,6.5,0l11.8-11.8l11.8,11.8c1.9,1.6,4.6,1.6,6.5,0c1.7-1.6,1.8-4.3,0.2-6.1c0-0.1-0.1-0.1-0.2-0.2l-11.8-11.8
		l11.8-11.8C-43.5,354.5-43.7,352.1-45.1,350.3z"/>
</g>
</svg>
