<?xml version="1.0" encoding="utf-8"?>
<!-- Generator: Adobe Illustrator 24.0.1, SVG Export Plug-In . SVG Version: 6.00 Build 0)  -->
<svg version="1.1" id="Layer_1" xmlns="http://www.w3.org/2000/svg" xmlns:xlink="http://www.w3.org/1999/xlink" x="0px" y="0px"
	 viewBox="0 0 256 256" style="enable-background:new 0 0 256 256;" xml:space="preserve">
<style type="text/css">
	.st0{fill:none;}
	.st1{fill:#3A4B55;}
</style>
<g>
	<rect x="36.6" y="49.6" class="st0" width="13" height="13"/>
	<polygon class="st0" points="36.6,193.4 49.6,193.4 49.6,206.4 49.6,206.4 49.6,193.4 36.6,193.4 	"/>
	<polygon class="st0" points="206.4,193.4 219.4,193.4 219.4,193.4 206.4,193.4 206.4,206.4 206.4,206.4 	"/>
	<rect x="206.4" y="49.6" class="st0" width="0" height="13"/>
	<path class="st1" d="M232.5,75.6V36.6h-39.1v13H62.6v-13H23.5v39.1h13v104.8h-13v39.1h39.1v-13h130.8v13h39.1v-39.1h-13V75.6H232.5
		z M36.6,49.6h13v13h-13V49.6z M49.6,206.4h-13v-13h13V206.4z M193.4,193.4H62.6v-13h-13V75.6h13v-13h130.8v13h13v104.8h-13V193.4z
		 M219.4,206.4h-13v-13h13V206.4z M206.4,62.6v-13h13v13H206.4z"/>
	<path class="st1" d="M182.2,140.1v32.6H77.4v-19.5l19.5-19.5l13,13l18.5-18.6l-0.2-0.2c0,0,0,0,0,0l0.2,0.2l20.5-20.5L182.2,140.1z
		"/>
	<path class="st1" d="M117,101.7c0,4.9-2,9.6-5.4,13v0c-0.2,0.2-0.4,0.4-0.5,0.6c-3.6,3.7-8.5,5.8-13.6,5.9
		c-5.2,0.2-10.2-2-13.6-5.9c-3.6-3.6-5.7-8.5-5.9-13.6c-0.1-4,1.1-7.8,3.5-11l0,0c0.7-0.9,1.5-1.8,2.5-2.6c3.6-3.7,8.5-5.8,13.6-5.9
		c5.2-0.2,10.2,2,13.6,5.9C114.8,91.6,117,96.5,117,101.7z"/>
</g>
</svg>
