<?xml version="1.0" encoding="utf-8"?>
<!-- Generator: Adobe Illustrator 23.0.3, SVG Export Plug-In . SVG Version: 6.00 Build 0)  -->
<svg version="1.1" id="Layer_1" xmlns="http://www.w3.org/2000/svg" xmlns:xlink="http://www.w3.org/1999/xlink" x="0px" y="0px"
	 viewBox="0 0 256 256" style="enable-background:new 0 0 256 256;" xml:space="preserve">
<style type="text/css">
	.st0{fill:#3A4B55;}
</style>
<g>
	<path class="st0" d="M239.93,202.14l-0.55-1.52l-44.23-33.13l-27.17,25.27C96.25,158.28,68.78,101.71,63.07,88.2l25.43-27.35
		L55.38,16.62l-1.52-0.55c-3.9-1.41-12.39-2.02-19.39,4.59l-0.56,0.53c-5.96,5.96-55.53,60.93,35.88,156.5l8.61,8.61
		c95.49,91.32,150.46,41.74,156.41,35.79l0.48-0.49C241.95,214.52,241.34,206.04,239.93,202.14z"/>
	<polygon class="st0" points="186.44,88.5 239.01,35.93 218.23,15.16 165.67,67.72 152.97,55.03 146.85,107.31 199.13,101.19 	"/>
</g>
</svg>
