<svg width="23" height="25" viewBox="0 0 23 25" fill="none" xmlns="http://www.w3.org/2000/svg">
<g clip-path="url(#clip0)">
<path d="M11.5003 11.4508C10.7626 11.4508 10.0415 11.2315 9.42811 10.8202C8.81476 10.4089 8.33673 9.82388 8.05443 9.13989C7.77214 8.45591 7.69826 7.70318 7.84217 6.97706C7.98608 6.25095 8.34132 5.58448 8.86293 5.06098C9.38454 4.53748 10.0491 4.18066 10.7726 4.03622C11.4961 3.89179 12.246 3.96615 12.9275 4.24946C13.6091 4.53278 14.1916 5.01262 14.6014 5.62819C15.0112 6.24376 15.23 6.96721 15.23 7.70755C15.23 8.70031 14.837 9.65213 14.1376 10.3541C13.4381 11.0561 12.4894 11.4508 11.5003 11.4508ZM11.5003 5.21207C11.0085 5.21207 10.5277 5.35825 10.1188 5.63245C9.70993 5.90666 9.39123 6.29687 9.20303 6.75286C9.01483 7.20885 8.96559 7.71026 9.06153 8.19434C9.15747 8.67842 9.3943 9.12293 9.74204 9.47193C10.0898 9.82093 10.5328 10.0586 11.0152 10.1549C11.4975 10.2512 11.9974 10.2018 12.4518 10.0129C12.9061 9.82407 13.2945 9.50458 13.5677 9.0942C13.8409 8.68382 13.9867 8.20111 13.9867 7.70755C13.9867 7.04571 13.7248 6.41116 13.2585 5.94317C12.7922 5.47518 12.1597 5.21207 11.5003 5.21207Z" fill="#03466C"/>
<path d="M11.5003 21.3203C11.3429 21.3198 11.1878 21.2822 11.0474 21.2107C10.9071 21.1391 10.7854 21.0357 10.6921 20.9085C9.08836 18.7 3.8916 11.2384 3.8916 7.70728C3.97107 5.73382 4.80811 3.86753 6.22748 2.49943C7.64685 1.13134 9.53851 0.367676 11.5065 0.367676C13.4744 0.367676 15.3661 1.13134 16.7855 2.49943C18.2048 3.86753 19.0419 5.73382 19.1213 7.70728C19.1213 11.2259 13.9121 18.7 12.3208 20.9085C12.2263 21.0374 12.1026 21.1421 11.96 21.2137C11.8173 21.2853 11.6598 21.3218 11.5003 21.3203ZM11.5003 1.35649C9.81205 1.35649 8.19298 2.02942 6.99924 3.22749C5.80549 4.42555 5.13484 6.05013 5.13484 7.74445C5.13484 10.2399 8.39215 15.6055 11.5003 19.9477C14.6208 15.6055 17.8781 10.2025 17.8781 7.74445C17.8814 6.90177 17.7188 6.06683 17.3998 5.28735C17.0807 4.50788 16.6114 3.79953 16.0189 3.20251C15.4263 2.60548 14.7221 2.13178 13.9467 1.80855C13.1713 1.48531 12.3399 1.31871 11.5003 1.31871V1.35649Z" fill="#03466C"/>
<path d="M11.5 24.7143C5.79351 24.7143 0 23.4666 0 20.9711C0 19.1993 2.80972 18.2637 5.17188 17.7896C5.252 17.7734 5.33456 17.7737 5.41462 17.7902C5.49468 17.8067 5.5706 17.8393 5.63789 17.8859C5.70517 17.9324 5.76242 17.9921 5.80625 18.0613C5.85007 18.1306 5.87955 18.2077 5.89296 18.2886C5.911 18.3682 5.91261 18.4507 5.8977 18.531C5.88279 18.6113 5.85168 18.6875 5.80627 18.7552C5.76085 18.823 5.70211 18.8811 5.63364 18.9252C5.56516 18.9694 5.4884 18.9991 5.4081 19.0124C2.36215 19.6237 1.24324 20.5219 1.24324 20.9711C1.24324 21.832 4.77405 23.4666 11.5 23.4666C18.2259 23.4666 21.7568 21.832 21.7568 20.9711C21.7568 20.5219 20.6503 19.6237 17.5795 19.0124C17.4146 18.9809 17.2689 18.8847 17.1745 18.7455C17.0801 18.6063 17.0446 18.4351 17.0759 18.2697C17.1073 18.1042 17.2028 17.9581 17.3415 17.8633C17.4803 17.7685 17.6508 17.7332 17.8157 17.7646C20.1903 18.2388 23 19.1743 23 20.9461C23.0124 23.4291 17.2189 24.7143 11.5 24.7143Z" fill="#03466C"/>
</g>
<defs>
<clipPath id="clip0">
<rect width="23" height="24.6429" fill="white" transform="translate(0 0.0712891)"/>
</clipPath>
</defs>
</svg>
